<?xml version="1.0" encoding="UTF-8"?>
<svg id="Camada_1" xmlns="http://www.w3.org/2000/svg" version="1.1" viewBox="0 0 841.89 361.26">
  <!-- Generator: Adobe Illustrator 30.0.0, SVG Export Plug-In . SVG Version: 2.1.1 Build 123)  -->
  <defs>
    <style>
      .st0, .st1 {
        fill: #fff;
      }

      .st1 {
        fill-rule: evenodd;
      }
    </style>
  </defs>
  <rect class="st0" x="573.6" width="82.91" height="82.91"/>
  <rect class="st0" x="666.29" width="82.91" height="82.91"/>
  <rect class="st0" x="758.98" width="82.91" height="82.91"/>
  <rect class="st0" x="573.6" y="93.84" width="82.91" height="82.91"/>
  <rect class="st0" x="573.6" y="187.69" width="82.91" height="82.91"/>
  <rect class="st0" x="666.29" y="93.84" width="82.91" height="82.91"/>
  <rect class="st0" x="666.29" y="187.69" width="82.91" height="82.91"/>
  <rect class="st0" x="758.98" y="93.84" width="82.91" height="82.91"/>
  <rect class="st0" x="758.98" y="187.69" width="82.91" height="82.91"/>
  <path class="st0" d="M835.18,333.02c-.35-5.34-4.68-6.97-7.99-6.97-4.37,0-8.07,2.74-8.07,7.28.04,3.62,2.69,5.21,6.05,6.22,4.28,1.41,6.09,2.21,6.13,4.59,0,2.03-1.72,3.58-3.93,3.58-1.72,0-4.06-.97-4.24-3.88h-4.54c.22,5.47,4.94,7.63,8.74,7.63,4.77,0,8.65-3.18,8.56-7.85-.13-5.16-4.15-6.22-7.81-7.24-2.56-.71-4.28-1.59-4.37-3.49-.05-1.59,1.19-3.09,3.44-3.09,2.34-.04,3.49,1.37,3.49,3.22h4.55ZM807.78,350.76h4.59v-24.01h-4.59v24.01ZM807.78,322.96h4.59v-4.85h-4.59v4.85ZM778.83,338.8c0-4.5,3.27-8.47,8.3-8.47,3.84,0,6.53,2.16,7.68,4.94.53,1.1.75,2.34.71,3.57-.04,1.24-.31,2.47-.84,3.58-1.19,2.74-3.8,4.77-7.46,4.77-5.83,0-8.34-4.77-8.39-8.34v-.04ZM800.06,326.75h-4.59v4.24c-1.1-2.29-4.15-4.94-8.91-4.94-6.97,0-12.31,5.38-12.31,12.71,0,6.71,4.59,12.71,12.31,12.71,3.8,0,7.24-1.68,8.91-4.9v4.19h4.59v-24.01ZM762.46,350.76h4.59v-20.43h4.63v-3.57h-4.63v-8.65h-4.59v8.65h-4.33v3.57h4.33v20.43ZM731,350.76h4.59v-13.37c0-4.15,2.07-6.97,6.57-7.02,4.68-.04,6.36,3.05,6.36,7.37v13.02h4.63v-14.08c0-4.99-2.03-10.55-9.71-10.63-4.28-.04-6.97,1.94-8.12,4.41v-3.71h-4.33v24.01ZM704.4,336.63c.22-3.27,3.26-6.66,7.94-6.66,4.54-.09,7.72,3.49,7.94,6.66h-15.89ZM724.83,340.21c.4-4.02-.79-7.77-3.62-10.64-2.29-2.25-5.43-3.53-8.87-3.53-7.28,0-12.67,5.87-12.67,12.75,0,6.35,4.85,12.66,12.71,12.66,2.43,0,4.81-.66,6.84-2.03,2.03-1.32,3.71-3.31,4.86-5.96h-4.77c-1.32,2.52-3.71,4.06-6.93,4.06-3.62,0-7.85-2.47-8.08-7.33h20.52ZM689.09,350.76h4.59v-24.01h-4.59v24.01ZM689.09,322.96h4.59v-4.85h-4.59v4.85ZM678.23,338.75c-.04,4.15-2.96,8.43-8.43,8.43-4.9,0-8.16-3.88-8.16-8.47s3.35-8.39,8.3-8.39,8.3,3.71,8.3,8.39v.04ZM657.23,350.76h4.41v-4.15c1.54,2.87,4.72,4.85,8.83,4.85,6.88,0,12.36-5.07,12.36-12.8s-5.96-12.62-12.18-12.62c-3.09.04-6.62,1.41-8.83,4.55v-12.49h-4.59v32.65ZM613.19,350.76h4.59v-13.15c0-1.94.4-3.62,1.28-4.9.79-1.32,2.38-2.38,4.55-2.34,2.25.04,3.66.97,4.54,2.38.79,1.32,1.01,2.78.97,4.77v13.24h4.63v-13.24c0-2.03.13-3.35,1.1-4.85.88-1.46,2.6-2.29,4.63-2.29,2.16,0,3.44.75,4.28,1.99,1.06,1.37,1.32,3.35,1.32,5.34v13.06h4.59v-13.24c0-4.59-.53-6.88-2.65-9.05-1.77-1.81-4.24-2.43-6.44-2.43-2.6,0-4.81.97-6.35,2.52-.84.84-1.32,1.68-1.72,2.38-.27-.44-.93-1.72-1.54-2.34-1.68-1.9-3.97-2.56-6.18-2.56-3.49,0-6.27,2.07-7.28,4.1v-3.4h-4.32v24.01ZM598.01,338.84h-11.12l5.52-14.69,5.6,14.69ZM585.48,343.03h13.94l3.09,7.72h5.65l-13.19-32.65h-4.72l-13.42,32.65h5.65l3-7.72ZM552.38,333.02c-.35-5.34-4.68-6.97-7.99-6.97-4.37,0-8.07,2.74-8.07,7.28.04,3.62,2.69,5.21,6.04,6.22,4.28,1.41,6.09,2.21,6.13,4.59,0,2.03-1.72,3.58-3.93,3.58-1.72,0-4.06-.97-4.24-3.88h-4.54c.22,5.47,4.94,7.63,8.74,7.63,4.77,0,8.65-3.18,8.56-7.85-.13-5.16-4.15-6.22-7.81-7.24-2.56-.71-4.28-1.59-4.37-3.49-.04-1.59,1.19-3.09,3.44-3.09,2.34-.04,3.49,1.37,3.49,3.22h4.54ZM510.63,336.63c.22-3.27,3.26-6.66,7.94-6.66,4.55-.09,7.72,3.49,7.94,6.66h-15.89ZM531.07,340.21c.4-4.02-.8-7.77-3.62-10.64-2.3-2.25-5.43-3.53-8.87-3.53-7.28,0-12.66,5.87-12.66,12.75,0,6.35,4.85,12.66,12.71,12.66,2.43,0,4.81-.66,6.84-2.03,2.03-1.32,3.71-3.31,4.85-5.96h-4.77c-1.32,2.52-3.71,4.06-6.93,4.06-3.62,0-7.86-2.47-8.08-7.33h20.52ZM495.28,318.01c-.84.75-1.9,1.19-3.4,1.19-1.28,0-2.34-.31-3.53-.66-1.15-.35-2.51-.71-3.88-.71-1.68,0-3.44.75-4.54,1.68l1.72,3.13c.93-.75,1.94-1.24,3.4-1.24.97,0,2.16.31,3.49.66,1.28.35,2.74.71,3.84.71,1.72,0,3.31-.57,4.63-1.68l-1.72-3.09ZM480.23,338.75c0-4.81,3.62-8.38,8.21-8.38s8.21,3.57,8.21,8.38-3.62,8.38-8.21,8.38-8.21-3.57-8.21-8.34v-.04ZM475.65,338.75c0,6.44,4.72,12.66,12.8,12.66s12.8-6.22,12.8-12.66-4.72-12.71-12.8-12.71-12.8,6.27-12.8,12.67v.04ZM459.01,351.42c5.96-.22,10.41-4.02,11.87-9.09h-4.72c-.97,2.38-3.49,4.81-7.5,4.85-4.59,0-8.21-3.49-8.21-8.43,0-2.38.93-4.63,2.34-6,1.68-1.59,3.44-2.34,5.87-2.34,3.27,0,6.27,1.81,7.5,4.94h4.72c-1.5-5.78-6.66-9.31-12.4-9.31-7.19,0-12.62,5.6-12.62,12.67,0,6.57,4.55,11.6,10.63,12.53l-1.68,3.62,2.03.93c.35-.53.8-.84,1.46-.84.93,0,1.72.66,1.77,1.72-.04,1.19-.79,1.9-1.81,1.9-.71,0-1.41-.4-1.72-1.37h-2.38c.49,3.31,3.44,3.49,4.1,3.49,2.82,0,4.19-2.07,4.19-4.02,0-2.25-1.77-3.62-3.53-3.62-.31,0-.57.04-.79.13l.88-1.76ZM439.55,326.75h-4.59v13.41c0,4.1-2.07,6.97-6.58,7.02-4.72,0-6.4-3.09-6.4-7.41v-13.02h-4.59v14.08c0,4.99,1.99,10.59,9.71,10.63,4.28.04,6.97-1.94,8.12-4.41v3.71h4.32v-24.01ZM405.18,350.76h4.59v-32.65h-4.59v32.65ZM377.82,338.75c0-4.81,3.62-8.38,8.21-8.38s8.21,3.57,8.21,8.38-3.62,8.38-8.21,8.38-8.21-3.57-8.21-8.34v-.04ZM373.23,338.75c0,6.44,4.72,12.66,12.8,12.66s12.8-6.22,12.8-12.66-4.72-12.71-12.8-12.71-12.8,6.27-12.8,12.67v.04ZM347.25,341.09c.09,6.31,4.24,10.28,10.72,10.28,6.97,0,10.55-4.59,10.55-9.88s-3.8-7.37-7.86-9.09c-5.25-1.94-7.68-2.74-7.68-5.91,0-2.78,2.3-4.59,4.94-4.59,3.75,0,4.54,2.82,4.9,4.59h5.12c-.4-6.71-5.65-9-9.84-9-5.12,0-10.32,3.31-10.28,9.4,0,6.13,5.69,8.03,8.25,8.87,4.19,1.54,7.28,2.38,7.28,6,0,2.91-2.52,5.21-5.43,5.21-1.72,0-5.16-.97-5.52-5.87h-5.16ZM300.24,336.63c.22-3.27,3.27-6.66,7.94-6.66,4.55-.09,7.72,3.49,7.94,6.66h-15.89ZM320.67,340.21c.4-4.02-.79-7.77-3.62-10.64-2.3-2.25-5.43-3.53-8.87-3.53-7.28,0-12.66,5.87-12.66,12.75,0,6.35,4.86,12.66,12.71,12.66,2.43,0,4.81-.66,6.84-2.03,2.03-1.32,3.71-3.31,4.85-5.96h-4.77c-1.32,2.52-3.71,4.06-6.93,4.06-3.62,0-7.85-2.47-8.07-7.33h20.52ZM246.35,338.8c0-4.5,3.27-8.47,8.3-8.47,3.84,0,6.53,2.16,7.68,4.94.53,1.1.75,2.34.71,3.57-.04,1.24-.31,2.47-.84,3.58-1.19,2.74-3.8,4.77-7.46,4.77-5.83,0-8.34-4.77-8.38-8.34v-.04ZM267.58,326.75h-4.59v4.24c-1.1-2.29-4.15-4.94-8.92-4.94-6.97,0-12.31,5.38-12.31,12.71,0,6.71,4.59,12.71,12.31,12.71,3.8,0,7.24-1.68,8.92-4.9v4.19h4.59v-24.01ZM230.86,350.76h4.59v-24.01h-4.59v24.01ZM230.86,322.96h4.59v-4.85h-4.59v4.85ZM214.1,350.76h4.59v-12.97c0-4.77,2.25-7.15,6.57-7.15h.31v-4.59c-3.27.04-5.78,1.41-7.15,4.24v-3.53h-4.33v24.01ZM185.15,338.8c0-4.5,3.27-8.47,8.3-8.47,3.84,0,6.53,2.16,7.68,4.94.53,1.1.75,2.34.71,3.57-.04,1.24-.31,2.47-.84,3.58-1.19,2.74-3.79,4.77-7.46,4.77-5.82,0-8.34-4.77-8.38-8.34v-.04ZM206.38,326.75h-4.59v4.24c-1.1-2.29-4.15-4.94-8.91-4.94-6.97,0-12.31,5.38-12.31,12.71,0,6.71,4.59,12.71,12.31,12.71,3.79,0,7.24-1.68,8.91-4.9v4.19h4.59v-24.01ZM152.19,350.76h4.59v-13.55c0-1.63.44-3.35,1.46-4.63.97-1.28,2.65-2.21,5.07-2.21s3.97.79,5.03,2.12c.97,1.32,1.37,3.22,1.37,5.38v12.89h4.63v-13.11c0-3.31-.57-6.18-2.07-8.25-1.54-2.12-3.93-3.35-7.68-3.35-3.13-.04-6.4,1.24-7.81,4.06v-12h-4.59v32.65ZM122.45,350.76h4.59v-13.37c0-4.15,2.07-6.97,6.57-7.02,4.68-.04,6.36,3.05,6.36,7.37v13.02h4.63v-14.08c0-4.99-2.03-10.55-9.71-10.63-4.28-.04-6.97,1.94-8.12,4.41v-3.71h-4.33v24.01ZM95.85,336.63c.22-3.27,3.27-6.66,7.94-6.66,4.54-.09,7.72,3.49,7.94,6.66h-15.89ZM116.28,340.21c.4-4.02-.79-7.77-3.62-10.64-2.29-2.25-5.43-3.53-8.87-3.53-7.28,0-12.66,5.87-12.66,12.75,0,6.35,4.85,12.66,12.71,12.66,2.43,0,4.81-.66,6.84-2.03,2.03-1.32,3.71-3.31,4.85-5.96h-4.77c-1.32,2.52-3.71,4.06-6.93,4.06-3.62,0-7.86-2.47-8.08-7.33h20.52ZM64.12,338.71c0-4.94,3.75-8.34,8.3-8.34,2.91,0,4.99,1.15,6.31,2.82,1.32,1.63,1.94,3.8,1.94,5.69-.04,2.34-.93,4.41-2.34,5.87-1.46,1.5-3.49,2.43-5.91,2.43-5.07,0-8.3-3.93-8.3-8.43v-.04ZM85.17,326.75h-4.59v4.06c-1.32-2.65-4.63-4.77-8.65-4.77-6.97,0-12.4,5.3-12.4,12.8s5.21,12.62,12.4,12.62c4.32,0,7.24-2.25,8.65-4.94v2.47c0,5.38-4.15,8.34-8.16,8.34-1.06,0-2.69-.31-4.15-1.28-1.19-.75-2.12-1.72-2.65-2.78h-5.3c1.15,4.02,5.12,7.99,11.91,7.99,4.15,0,7.9-1.81,10.11-4.37,1.76-2.03,2.82-4.72,2.82-8.91v-21.23ZM31.16,350.76h4.59v-13.37c0-4.15,2.07-6.97,6.58-7.02,4.68-.04,6.35,3.05,6.35,7.37v13.02h4.63v-14.08c0-4.99-2.03-10.55-9.71-10.63-4.28-.04-6.97,1.94-8.12,4.41v-3.71h-4.32v24.01ZM5.92,350.76h18.27v-4.59h-13.06v-9.66h12.88v-4.54h-12.88v-9.27h13.06v-4.59H5.92v32.65Z"/>
  <rect class="st0" x=".35" y="281.39" width="840.85" height="21.73"/>
  <g>
    <path class="st1" d="M422.61,142.78h-25.23v54.43h28.13c25.81,0,38.69-9.07,38.69-27.18,0-7.02-2.74-13.34-8.18-18.9-5.49-5.56-16.63-8.36-33.41-8.36Z"/>
    <path class="st1" d="M450.43,114.61c4.96-4.56,7.44-10.41,7.44-17.64,0-8.49-2.85-14.51-8.55-18.19-5.65-3.64-14.46-5.48-26.34-5.48h-25.6v48.16h22.17c15.62,0,25.92-2.3,30.88-6.86Z"/>
    <path class="st1" d="M253.87,71.54c-14.52,0-24.65,5.73-30.4,17.18-5.75,11.45-8.66,27.09-8.66,46.91s2.85,35.03,8.5,46.66c5.65,11.62,15.99,17.43,30.98,17.43,14.09,0,24.07-5.64,29.93-16.89,5.86-11.25,8.81-26.97,8.81-47.2s-2.9-35.54-8.71-46.95c-5.81-11.41-15.99-17.14-30.45-17.14Z"/>
    <path class="st1" d="M0,0v271.27h562.58V0H0ZM145.24,156.08c0,17.22-1.21,30.02-3.69,38.42-2.48,8.4-7.81,15.13-15.94,20.19-8.13,5.06-19.79,7.61-35.05,7.61-7.86,0-17.15-1-27.97-3.05v-22.87c7.23,1.55,14.04,2.34,20.43,2.34,7.55,0,13.25-1.09,17.1-3.3,3.85-2.22,6.55-5.56,8.02-10.12,1.53-4.52,2.27-14.26,2.27-29.22V51.98h34.84v104.1ZM310.45,200.4c-12.88,14.59-31.62,21.91-56.16,21.91s-43.49-7.27-56.58-21.87c-13.09-14.59-19.64-36.21-19.64-64.89s6.49-49.92,19.48-64.59c12.98-14.67,31.88-21.99,56.58-21.99s43.18,7.28,56.16,21.87c12.98,14.59,19.48,36.16,19.48,64.72s-6.44,50.21-19.32,64.84ZM485.06,205.5c-9.92,9.2-28.98,13.8-57.11,13.8h-64.76V51.98h63.92c16.1,0,28.34,1,36.68,3.05,8.34,2.05,15.41,6.61,21.22,13.67,5.75,7.11,8.66,15.68,8.66,25.84,0,18.56-10.45,30.77-31.4,36.67,25.18,6.31,37.74,20.32,37.74,42.02,0,12.33-4.96,23.12-14.94,32.28Z"/>
  </g>
</svg>