<svg height="512" viewBox="0 0 32 32" width="512" xmlns="http://www.w3.org/2000/svg"><g id="_x30_2"><path d="m29 2h-26c-.5522461 0-1 .4477539-1 1v17c0 .5522461.4477539 1 1 1h26c.5522461 0 1-.4477539 1-1v-17c0-.5522461-.4477539-1-1-1zm-20.8841553 10.1796875 5-6c.1743164-.2089844.4833984-.2412109.6967773-.0703125l4.6875 3.7504883 4.5740968-3.8598633h-.5742188c-.2763672 0-.5-.2236328-.5-.5s.2236328-.5.5-.5h2c.2763672 0 .5.2236328.5.5v2c0 .2763672-.2236328.5-.5.5s-.5-.2236328-.5-.5v-.9741211l-5.1873779 4.3647461c-.1826172.1455078-.4423828.1455078-.625 0l-4.6171875-3.6938477-4.6860352 5.6235352c-.0991211.1186523-.2412109.1796875-.3847656.1796875-.112793 0-.2260742-.0380859-.3198242-.1157227-.2119141-.1767578-.2407227-.4921875-.0639649-.7045898zm18.3841553 6.8203125h-21c-.2763672 0-.5-.2236328-.5-.5v-14c0-.2763672.2236328-.5.5-.5s.5.2236328.5.5v13.5h1v-3c0-.5522461.4477539-1 1-1h2c.5522461 0 1 .4477539 1 1v3h1v-6c0-.5522461.4477539-1 1-1h2c.5522461 0 1 .4477539 1 1v6h1v-4c0-.5522461.4477539-1 1-1h2c.5522461 0 1 .4477539 1 1v4h1v-7c0-.5522461.4477539-1 1-1h2c.5522461 0 1 .4477539 1 1v7h.5c.2763672 0 .5.2236328.5.5s-.2236328.5-.5.5z"/><path d="m20.9830322 22h-2.1882935l.888916 2h-7.3673096l.888916-2h-2.1882935l-2.930542 6.59375c-.2246094.5048828.0029297 1.0957031.5073242 1.3198242.1323242.059082.2700195.0869141.4057617.0869141.3828125 0 .7485352-.2216797.9140625-.5942383l1.5139162-3.40625h9.1450195l1.513916 3.40625c.1655273.3725586.5307617.5942383.9140625.5942383.1357422 0 .2734375-.027832.4057617-.0869141.5043945-.2241211.7319336-.8149414.5073242-1.3198242z"/></g></svg>