<svg id="Layer_1" height="512" viewBox="0 0 64 64" width="512" xmlns="http://www.w3.org/2000/svg"><path d="m55 26 2-7 5-2-5-2-2-7-2 7-5 2 5 2z"/><path d="m30.88 19 1.12 3 1.13-3 1.87-5 6-3-6-3-3-8-3 8-6 3 6 3z"/><path d="m9 24 2-7 5-2-5-2-2-7-2 7-5 2 5 2z"/><path d="m9 42h4v4h-4z"/><path d="m26 52h4v4h-4z"/><path d="m35 28h4v4h-4z"/><path d="m45 20h-10.109l-1.019 2.705c-.294.779-1.039 1.295-1.872 1.295h-.003c-.834-.001-1.579-.519-1.871-1.3l-1.008-2.7h-9.119v23c0 .553-.448 1-1 1s-1-.447-1-1v-13h-14.999v34h15v-13c0-.553.448-1 1-1s1 .447 1 1v13h15v-26c0-.553.448-1 1-1h9zm-30 27c0 .553-.448 1-1 1h-6c-.552 0-1-.447-1-1v-6c0-.553.448-1 1-1h6c.552 0 1 .447 1 1zm4 1c-.552 0-1-.448-1-1s.448-1 1-1 1 .448 1 1-.448 1-1 1zm13 9c0 .553-.448 1-1 1h-6c-.552 0-1-.447-1-1v-6c0-.553.448-1 1-1h6c.552 0 1 .447 1 1zm0-15c0 .553-.448 1-1 1h-6c-.552 0-1-.447-1-1v-6c0-.553.448-1 1-1h6c.552 0 1 .447 1 1zm9-9c0 .553-.448 1-1 1h-6c-.552 0-1-.447-1-1v-6c0-.552.448-1 1-1h6c.552 0 1 .448 1 1z"/><path d="m26 37h4v4h-4z"/><path d="m42 45h4v4h-4z"/><path d="m37 64h22v-25h-22zm12-11h6c.552 0 1 .447 1 1v6c0 .553-.448 1-1 1h-6c-.552 0-1-.447-1-1v-6c0-.553.448-1 1-1zm-9-9c0-.553.448-1 1-1h6c.552 0 1 .447 1 1v6c0 .553-.448 1-1 1h-6c-.552 0-1-.447-1-1z"/><path d="m50 55h4v4h-4z"/></svg>