<?xml version="1.0" encoding="UTF-8"?>
<svg id="Layer_1" xmlns="http://www.w3.org/2000/svg" version="1.1" viewBox="0 0 455 455">
  <!-- Generator: Adobe Illustrator 30.4.0, SVG Export Plug-In . SVG Version: 2.1.4 Build 226)  -->
  <defs>
    <style>
      .st0 {
        fill-rule: evenodd;
      }
    </style>
  </defs>
  <path class="st0" d="M348.52,102.42v42.16c0,.46.32.85.77.93,37.67,7.18,64.66,40.86,64.66,78.95v26.9c0,.52-.43.95-.95.95h-53.42c-.52,0-.95-.43-.95-.95v-26.9c0-13.75-11.26-25.01-25.01-25.01h-40.2c-.52,0-.95-.43-.95-.95v-52.97c0-.52.42-.94.94-.95l39.91-.47c.52,0,.94-.43.94-.95v-40.75c0-.52-.43-.95-.95-.95h-58.16c-3.94,0-7.13-3.19-7.13-7.13s3.19-7.13,7.13-7.13h132.47c3.94,0,7.13,3.19,7.13,7.13s-3.19,7.13-7.13,7.13h-58.16c-.52,0-.95.43-.95.95h0ZM247.89,138.56v66.47c0,.54.5,1.03,1.03,1.03h28.26c.54,0,1.03-.5,1.03-1.03v-66.47c0-.54-.5-1.03-1.03-1.03h-28.26c-.54,0-1.03.49-1.03,1.03ZM233.63,198.5v-53.02c0-.52-.42-.95-.95-.95l-59.97-.33c-.53,0-.96.42-.96.95v53.36c0,.52.43.95.95.95h59.97c.52,0,.95-.43.95-.95h0ZM384.52,286.22c-12.98,39.67-53.42,69.71-53.42,104.1,0,31.1,24.32,56.32,54.32,56.32s54.32-25.21,54.32-56.32c0-34.39-40.44-64.43-53.42-104.1-.28-.87-1.52-.87-1.81,0h0ZM394.9,420.07c-2.54-3-2.16-7.49.84-10.02,4.4-3.72,7.07-8.74,8.03-14.45h-.02c.64-5.12-1.54-11.78-3.39-16.56-1.42-3.66.4-7.77,4.07-9.19,3.66-1.42,7.77.4,9.19,4.07,2.81,7.25,5.26,15.58,4.28,23.4h-.02c-1.03,9.01-6.12,17.82-12.94,23.59-3,2.54-7.49,2.16-10.02-.84h0ZM97.24,227.04c.17-.18.25-.4.25-.65v-124.33c0-.3-.13-.56-.37-.75l-23.18-18.03c-4.45-3.46-6.82-8.31-6.82-13.95v-28.96c0-5.12,1.93-9.52,5.69-12.99L102.23.25c.61-.56,1.6-.13,1.6.7v52.58c0,.27.1.51.3.69l22.73,21.28c.37.34.93.34,1.3,0l22.73-21.27c.2-.19.3-.42.3-.69V.95c0-.83.98-1.26,1.6-.7l29.41,27.14c3.76,3.47,5.69,7.87,5.69,12.99v28.96c0,5.64-2.37,10.49-6.82,13.95l-23.18,18.03c-.24.19-.37.45-.37.75v124.33c0,1.04,2.36,2.06,3.95,6.95l6.01,18.51c.08.26.25.45.5.57,4.76,2.25,9.33,4.89,13.66,7.9.22.16.47.21.74.15l19.05-4.05c7.18-1.53,14.59,1.77,18.26,8.13l17.78,30.8c3.69,6.39,2.85,14.4-2.09,19.88l-13.03,14.47c-.18.2-.26.44-.24.71.43,5.25.43,10.52,0,15.77-.02.27.06.51.24.71l13.03,14.47c4.94,5.48,5.78,13.49,2.09,19.88l-17.78,30.8c-3.67,6.36-11.08,9.66-18.26,8.13l-19.04-4.05c-.27-.06-.52,0-.74.15-4.33,3.01-8.9,5.65-13.67,7.9-.25.12-.41.31-.5.57l-6.01,18.5c-2.28,7.02-8.79,11.75-16.17,11.75h-35.57c-7.38,0-13.89-4.73-16.17-11.75l-6.01-18.51c-.08-.26-.25-.45-.5-.57-4.76-2.25-9.33-4.89-13.66-7.9-.22-.16-.47-.21-.74-.15l-19.05,4.05c-7.18,1.53-14.59-1.77-18.26-8.13l-17.78-30.8c-3.69-6.39-2.85-14.39,2.09-19.88l13.03-14.47c.18-.2.26-.44.24-.71-.43-5.25-.43-10.52,0-15.77.02-.27-.06-.51-.24-.71l-13.03-14.47c-4.94-5.48-5.78-13.49-2.09-19.88l17.78-30.8c3.67-6.36,11.08-9.65,18.26-8.13l19.05,4.05c.27.06.52,0,.74-.15,4.32-3.01,8.89-5.65,13.66-7.9.25-.12.41-.31.5-.57l6.01-18.51c.78-2.41,2.06-4.54,3.69-6.31h0ZM127.5,278.12c-33.24,0-60.18,26.94-60.18,60.18s26.94,60.18,60.18,60.18,60.18-26.94,60.18-60.18c0-33.24-26.94-60.18-60.18-60.18Z"/>
</svg>