<svg id="Layer_1" height="512" viewBox="0 0 64 64" width="512" xmlns="http://www.w3.org/2000/svg" data-name="Layer 1"><path d="m58 45a10.9 10.9 0 0 1 -.66 4.07 12.015 12.015 0 0 0 -8.24-7.66 58.9 58.9 0 0 0 2.9-17.41v-2h-2a12.593 12.593 0 0 1 -12.08-8.57l-1.37-4.54-2.3 4.14c-4.4 7.93-20.21 8.96-20.37 8.97l-1.88.12v1.88c0 1.1.16 23.01 12 29.92v.65c0 .06-2.4 7.07-6 8.43h-15c.63-4.47 5-4.49 5-9 0-4-2-4-2-9 0-4.51 4-5 4-9 0-4.51-2-4-2-9 0-16 10-26 24-26s24 10 24 26c0 5-2 4.49-2 9 0 4 4 4.49 4 9z"/><path d="m61 63h-8.38a11.953 11.953 0 0 0 4.55-5.63c1.34 1.66 3.41 2.66 3.83 5.63z"/><path d="m50 24a57.517 57.517 0 0 1 -2.92 17.05c-.36-.03-.72-.05-1.08-.05a12.01 12.01 0 0 0 -12 12 8.25 8.25 0 0 0 .04.86 14.855 14.855 0 0 1 -2.04.14c-18 0-18-30-18-30s17-1 22-10c0 0 3 10 14 10z"/><path d="m39.38 63h-18.38c3.71-1.4 4.66-5.9 4.91-8.14a16.932 16.932 0 0 0 8.43.98 12 12 0 0 0 5.04 7.16z"/><path d="m46 43a10 10 0 1 0 10 10 10 10 0 0 0 -10-10zm5.707 6.707-7 7a1 1 0 0 1 -1.414 0l-3-3a1 1 0 0 1 1.414-1.414l2.293 2.293 6.293-6.293a1 1 0 0 1 1.414 1.414z"/></svg>