<?xml version="1.0" encoding="UTF-8"?>
<svg id="Layer_1" xmlns="http://www.w3.org/2000/svg" version="1.1" viewBox="0 0 455 455">
  <!-- Generator: Adobe Illustrator 30.4.0, SVG Export Plug-In . SVG Version: 2.1.4 Build 226)  -->
  <path d="M437.44,227.19c4.75,2.02,7.71,4.81,7.71,7.29,0,4.92-10.7,10.42-25.01,10.42-1.89,0-3.78-.1-5.62-.29-.13-.01-.26-.02-.39-.02-.43,0-.85.07-1.25.22-4.52,1.62-9.91,2.47-15.59,2.47-7.19,0-14.11-1.43-18.99-3.92-.52-.27-1.11-.41-1.7-.41-.18,0-.36.01-.53.04-2.44.35-4.97.53-7.53.53-9.57,0-16.42-3.66-18.24-7.28-.99-1.97-.62-4.08,1.14-6.45.79-1.06.95-2.47.44-3.69l-.15-.35-.05-.38c-.32-2.41.08-7.66,3.65-12.03,4.3-5.26,12.26-8.04,23.03-8.04.46,0,.93,0,1.45.02,1.62,0,3.05-1.02,3.57-2.53,2.29-6.76,8.63-11.3,15.77-11.3,8.74,0,16.04,6.83,16.61,15.54.11,1.74,1.45,3.19,3.17,3.45,11.11,1.68,17.1,6.33,17.1,9.84,0,.58-.15,1.15-.45,1.75-.47.92-.53,2-.18,2.97.35.97,1.1,1.75,2.05,2.16h0ZM238.73,371.53H4.18v21.7h234.55v-21.7ZM203.02,364.05v-25.09h-12.61v25.09h12.61ZM.27,435.11v22.81h454.46v-22.81H.27ZM223.11,427.63v-26.93h-12.61v26.93h12.61ZM32.42,427.63v-26.93h-12.61v26.93h12.61ZM54.97,364.05v-25.09h-13.5v25.09h13.5ZM215.52,83.03c-.38,1.19-1.32,2.11-2.51,2.46-18.16,5.3-31.42,36.23-31.42,47.73,0,10.53,6.86,19.75,18.36,24.67,5.5,2.35,11.94,3.6,18.63,3.6h0c11.3,0,28.41-3.46,45.68-19.95.7-.67,1.62-1.04,2.58-1.04.6,0,1.17.14,1.7.41,12.52,6.39,30.13,10.05,48.31,10.05,6.58,0,17.91-1.8,27.91-3.39,12.32-1.96,19.38-2.95,23.8-2.95,3.44,0,4.78.62,5.72,1.3,12.22,8.75,24.43,13.38,35.32,13.38,5.44,0,10.45-1.16,14.89-3.44,9.24-4.75,13.38-13.11,13.38-19.28,0-9.01-8.59-38.71-21.86-44.35-.95-.4-1.69-1.19-2.05-2.16-.35-.97-.29-2.05.18-2.97,1.1-2.18,1.66-4.4,1.66-6.61,0-13-18.85-24.93-45.85-29.03-1.72-.26-3.06-1.71-3.17-3.45-1.57-23.84-21.53-42.52-45.44-42.52-19.52,0-36.86,12.42-43.13,30.9-.51,1.49-1.91,2.51-3.49,2.54-38.16.54-63.79,16.2-63.79,30.48,0,3.44,1.33,6.86,3.96,10.16.78.98,1.01,2.27.64,3.46h0ZM181.06,102.1c.72,0,1.48-.03,2.31-.09l1.43-.1.75-1.22c5.4-8.79,11.78-15.48,18.44-19.36l2.13-1.24-.95-2.27c-1.14-2.71-1.72-5.54-1.72-8.4,0-4.17,1.23-8.24,3.65-12.11l.95-1.51-.97-1.5c-5.74-8.87-15.47-14.17-26.02-14.17-17.09,0-30.99,13.9-30.99,30.99s13.9,30.99,30.99,30.99h0ZM28.42,331.49h186.08c4.75,0,8.61-3.86,8.61-8.61v-43.33c0-4.75-3.86-8.61-8.61-8.61H28.42c-4.75,0-8.61,3.86-8.61,8.61v43.33c0,4.75,3.86,8.61,8.61,8.61ZM169.14,211.2c2.42,4.81,10.78,8.18,20.33,8.18,2.82,0,5.62-.2,8.31-.58.18-.03.36-.04.53-.04.59,0,1.17.14,1.7.41,5.4,2.76,13.05,4.34,20.99,4.34,6.26,0,12.21-.94,17.21-2.73.4-.14.83-.22,1.26-.22.13,0,.26,0,.39.02,2.03.21,4.12.32,6.21.32,17.22,0,27.79-6.87,27.79-11.79,0-2.91-3.24-6.02-8.67-8.32-.95-.4-1.69-1.19-2.05-2.16-.35-.97-.29-2.05.17-2.97.36-.71.53-1.39.53-2.08,0-4.71-8.19-9.5-19.06-11.15-1.72-.26-3.06-1.71-3.17-3.45-.27-4.16-1.89-8-4.68-11.12l-1.12-1.26-1.64.4c-5.16,1.27-10.41,1.92-15.58,1.92-2.66,0-5.39-.19-8.12-.55l-1.69-.23-.98,1.39c-1.03,1.47-1.84,3.05-2.41,4.71-.51,1.52-1.96,2.53-3.6,2.53-.63-.01-1.23-.02-1.83-.02-15.58,0-26.22,4.31-29.97,12.15-2.08,4.35-1.23,8.43.04,9.94l.11.13c1.25,1.31,1.36,3.33.28,4.79-2.02,2.72-2.44,5.16-1.28,7.45h0ZM338.45,294.6l44.52-41.35-4.27-1.58c-.76-.28-1.43-.55-2.05-.82l-.69-.3-.75.08c-2.19.24-4.44.36-6.69.36-3.44,0-6.78-.4-9.93-1.19l-1.31-.33-23.6,17.92c-.65.49-1.45.76-2.26.76-.52,0-1.02-.11-1.5-.31-1.24-.54-2.09-1.71-2.22-3.06-2.09-21.44-3.02-44.79-3.93-67.37-.5-12.39-1.01-25.18-1.7-36.4l-.17-2.75-2.75.12c-.8.03-1.58.06-2.31.06-2.88,0-5.87-.09-8.88-.28l-2.78-.17-.18,2.78c-2.26,34.1-5.05,60.34-8.53,80.24-.24,1.35-1.19,2.46-2.49,2.9-.38.13-.79.2-1.19.2-.95,0-1.85-.35-2.54-1l-20.88-19.35-1.66.7c-3.31,1.38-7.04,2.42-11.08,3.08l-5.14.84,39.28,42.58c.65.71,1.01,1.63.99,2.59-.64,40.65-10.17,114.1-16.02,150.84l-.52,3.24h73.4l-.46-3.2c-4.75-32.93-13.11-106.55-10.88-127.48.1-.9.51-1.73,1.17-2.34h0ZM143.82,104.62c-1,0-1.94.39-2.64,1.09l-12.46,12.46c-.71.71-1.09,1.64-1.09,2.64s.39,1.94,1.09,2.64c.71.71,1.64,1.09,2.64,1.09s1.94-.39,2.64-1.09l12.46-12.46c.71-.71,1.09-1.64,1.09-2.64s-.39-1.94-1.09-2.64c-.71-.71-1.64-1.09-2.64-1.09h0ZM141.17,36.51c.71.71,1.64,1.09,2.64,1.09s1.94-.39,2.64-1.09,1.09-1.64,1.09-2.64-.39-1.94-1.09-2.64l-12.46-12.46c-.71-.71-1.64-1.09-2.64-1.09s-1.94.39-2.64,1.09c-.71.71-1.09,1.64-1.09,2.64s.39,1.94,1.09,2.64l12.46,12.46ZM181.06,22.18c2.06,0,3.74-1.68,3.74-3.74V.82c0-2.06-1.68-3.74-3.74-3.74s-3.74,1.68-3.74,3.74v17.62c0,2.06,1.68,3.74,3.74,3.74ZM218.3,37.61c1,0,1.94-.39,2.64-1.09l12.46-12.46c.71-.71,1.09-1.64,1.09-2.64s-.39-1.94-1.09-2.64c-.71-.71-1.64-1.09-2.64-1.09s-1.94.39-2.64,1.09l-12.46,12.46c-.71.71-1.09,1.64-1.09,2.64s.39,1.94,1.09,2.64c.71.71,1.64,1.09,2.64,1.09h0ZM110.77,74.85h17.62c2.06,0,3.74-1.68,3.74-3.74s-1.68-3.74-3.74-3.74h-17.62c-2.06,0-3.74,1.68-3.74,3.74s1.68,3.74,3.74,3.74Z"/>
</svg>