<svg id="Solid" height="512" viewBox="0 0 256 256" width="512" xmlns="http://www.w3.org/2000/svg"><path d="m160.064 79.935c7.52 0 11.107-2.928 15.26-6.319a45.032 45.032 0 0 1 5.862-4.255v-15.793h-42.64v15.564a42.921 42.921 0 0 1 6.258 4.484c4.153 3.391 7.74 6.319 15.26 6.319z"/><path d="m59.039 167.5c3.514-2.868 7.5-6.12 15.214-6.12s11.7 3.251 15.213 6.12c3.208 2.619 5.978 4.88 11.735 4.88s8.527-2.261 11.735-4.88a35.877 35.877 0 0 1 4.827-3.49v-88.327c-.932.69-1.842 1.429-2.779 2.194-4.34 3.543-9.259 7.558-18.739 7.558s-14.4-4.015-18.738-7.558c-.8-.657-1.589-1.3-2.384-1.9v14.054l-.254.254-23.515 81.638c3.22-.787 5.338-2.508 7.685-4.423zm33.361-26.9a10.409 10.409 0 0 1 3.887-6.463 5.045 5.045 0 0 0 2.12-3.365 6.25 6.25 0 0 0 -.742-4.346 11.537 11.537 0 0 1 -1.121-7.611 10.408 10.408 0 0 1 3.886-6.462 5.041 5.041 0 0 0 2.119-3.363 6.245 6.245 0 0 0 -.742-4.344 11.53 11.53 0 0 1 -1.121-7.609l.514-2.7 5.4 1.028-.514 2.7a6.245 6.245 0 0 0 .742 4.344 11.53 11.53 0 0 1 1.121 7.609 10.406 10.406 0 0 1 -3.886 6.461 5.043 5.043 0 0 0 -2.119 3.363 6.248 6.248 0 0 0 .742 4.347 11.538 11.538 0 0 1 1.121 7.611 10.411 10.411 0 0 1 -3.887 6.463 5.044 5.044 0 0 0 -2.12 3.364 6.25 6.25 0 0 0 .742 4.347 11.541 11.541 0 0 1 1.12 7.611l-.514 2.7-5.4-1.027.514-2.7a6.251 6.251 0 0 0 -.742-4.348 11.538 11.538 0 0 1 -1.12-7.61zm-20.134-2.66a10.41 10.41 0 0 1 4.492-6.058 5.044 5.044 0 0 0 2.435-3.144 6.251 6.251 0 0 0 -.319-4.4 11.535 11.535 0 0 1 -.381-7.683 10.408 10.408 0 0 1 4.492-6.057 5.042 5.042 0 0 0 2.434-3.143 6.244 6.244 0 0 0 -.32-4.4 11.533 11.533 0 0 1 -.381-7.682l.772-2.639 5.279 1.544-.769 2.647a6.244 6.244 0 0 0 .32 4.4 11.533 11.533 0 0 1 .38 7.675 10.408 10.408 0 0 1 -4.492 6.056 5.042 5.042 0 0 0 -2.434 3.143 6.251 6.251 0 0 0 .319 4.4 11.535 11.535 0 0 1 .381 7.683 10.41 10.41 0 0 1 -4.492 6.058 5.044 5.044 0 0 0 -2.435 3.144 6.251 6.251 0 0 0 .319 4.4 11.536 11.536 0 0 1 .381 7.684l-.772 2.639-5.279-1.544.772-2.639a6.251 6.251 0 0 0 -.319-4.4 11.536 11.536 0 0 1 -.383-7.684z"/><path d="m181.187 75.977c-.8.6-1.579 1.243-2.384 1.9-4.34 3.543-9.259 7.558-18.738 7.558s-14.4-4.015-18.739-7.558c-.938-.765-1.848-1.5-2.779-2.194v88.331a35.926 35.926 0 0 1 4.818 3.485c3.208 2.619 5.979 4.88 11.736 4.88s8.528-2.261 11.735-4.88c3.514-2.869 7.5-6.12 15.214-6.12s11.7 3.251 15.215 6.12c2.349 1.917 4.468 3.639 7.692 4.426l-23.516-81.64-.254-.254zm-18.4 72.231a6.251 6.251 0 0 0 -.742 4.348l.514 2.7-5.4 1.027-.514-2.7a11.541 11.541 0 0 1 1.12-7.611 6.251 6.251 0 0 0 .742-4.347 5.042 5.042 0 0 0 -2.12-3.364 10.412 10.412 0 0 1 -3.887-6.461 11.537 11.537 0 0 1 1.121-7.611 6.251 6.251 0 0 0 .742-4.346 5.042 5.042 0 0 0 -2.119-3.363 10.407 10.407 0 0 1 -3.886-6.462 11.531 11.531 0 0 1 1.121-7.609 6.243 6.243 0 0 0 .742-4.344l-.514-2.7 5.4-1.027.514 2.7a11.533 11.533 0 0 1 -1.121 7.609 6.243 6.243 0 0 0 -.742 4.344 5.042 5.042 0 0 0 2.119 3.363 10.407 10.407 0 0 1 3.887 6.462 11.538 11.538 0 0 1 -1.121 7.611 6.248 6.248 0 0 0 -.742 4.347 5.043 5.043 0 0 0 2.12 3.364 10.41 10.41 0 0 1 3.879 6.462 11.538 11.538 0 0 1 -1.115 7.607zm21.26-10.267a11.536 11.536 0 0 1 -.381 7.684 6.253 6.253 0 0 0 -.319 4.4l.772 2.639-5.279 1.544-.772-2.639a11.539 11.539 0 0 1 .381-7.684 6.251 6.251 0 0 0 .319-4.4 5.044 5.044 0 0 0 -2.435-3.144 10.41 10.41 0 0 1 -4.492-6.058 11.535 11.535 0 0 1 .381-7.683 6.251 6.251 0 0 0 .319-4.4 5.041 5.041 0 0 0 -2.434-3.143 10.408 10.408 0 0 1 -4.494-6.057 11.532 11.532 0 0 1 .381-7.681 6.244 6.244 0 0 0 .32-4.4l-.772-2.639 5.279-1.544.772 2.639a11.533 11.533 0 0 1 -.381 7.682 6.244 6.244 0 0 0 -.32 4.4 5.041 5.041 0 0 0 2.434 3.143 10.408 10.408 0 0 1 4.492 6.057 11.535 11.535 0 0 1 -.381 7.683 6.251 6.251 0 0 0 -.319 4.4 5.044 5.044 0 0 0 2.435 3.144 10.41 10.41 0 0 1 4.491 6.056z"/><path d="m96.246 79.935c7.52 0 11.107-2.928 15.261-6.319a42.921 42.921 0 0 1 6.258-4.484v-15.564h-42.642v15.794a45.031 45.031 0 0 1 5.862 4.255c4.154 3.39 7.741 6.318 15.261 6.318z"/><path d="m123.264 161.882a24.017 24.017 0 0 1 9.782 0v-69.1h-9.782z"/><path d="m123.264 53.568h9.782v33.713h-9.782z"/><path d="m75.123 35.416h106.063v12.652h-106.063z"/><path d="m210.787 172.3c4.58-.421 7.1-2.465 9.953-4.8.882-.72 1.794-1.464 2.787-2.175l-20.9-72.543h-14.744z"/><path d="m186.687 24.581h14.3v62.7h-14.3z"/><path d="m45.523 172.3 22.9-79.515h-14.744l-20.9 72.544c.992.71 1.9 1.454 2.785 2.174 2.861 2.328 5.377 4.373 9.959 4.797z"/><path d="m55.323 24.581h14.3v62.7h-14.3z"/><path d="m209 205.932c-7.718 0-11.7-3.251-15.216-6.12-3.208-2.619-5.979-4.88-11.737-4.88s-8.528 2.261-11.735 4.88c-3.514 2.869-7.5 6.12-15.214 6.12-7.994 0-11.851-3.268-15.253-6.152-3.069-2.6-5.72-4.848-11.7-4.848-5.757 0-8.528 2.261-11.735 4.88-3.514 2.868-7.5 6.12-15.213 6.12s-11.7-3.251-15.213-6.12c-3.208-2.619-5.978-4.88-11.735-4.88s-8.528 2.261-11.736 4.88c-3.514 2.869-7.5 6.12-15.214 6.12s-11.7-3.251-15.213-6.12c-2.649-2.163-5-4.078-8.985-4.681v39.4h210.099v-39.4c-3.982.6-6.338 2.518-8.987 4.681-3.513 2.869-7.493 6.12-15.213 6.12z"/><path d="m233.094 167.094c-.093.015-.183.032-.275.048-.182.032-.363.067-.538.1q-.144.031-.285.065-.254.06-.5.129c-.086.024-.173.047-.257.072-.187.056-.368.115-.548.177-.054.019-.109.035-.163.054q-.346.125-.676.264c-.053.022-.1.047-.156.07-.166.073-.33.147-.49.225-.074.036-.147.074-.221.111q-.206.1-.407.214l-.221.123q-.2.116-.4.237c-.064.039-.129.077-.193.117q-.246.154-.487.315l-.086.056q-.284.192-.562.394l-.162.12c-.133.1-.265.2-.4.3l-.2.151q-.183.141-.365.284l-.2.157-.391.314-.162.131-.537.437c-3.514 2.868-7.5 6.12-15.215 6.12s-11.7-3.251-15.216-6.12c-2.807-2.291-5.28-4.309-9.711-4.778a19.255 19.255 0 0 0 -2.026-.1c-5.757 0-8.528 2.261-11.735 4.88-3.514 2.869-7.5 6.12-15.214 6.12s-11.7-3.251-15.214-6.12c-3.208-2.619-5.978-4.88-11.736-4.88s-8.528 2.261-11.735 4.88c-3.514 2.868-7.5 6.12-15.213 6.12s-11.7-3.251-15.213-6.12c-3.208-2.619-5.978-4.88-11.735-4.88s-8.528 2.261-11.736 4.88c-3.514 2.869-7.5 6.12-15.214 6.12s-11.7-3.251-15.213-6.12l-.533-.434-.168-.136-.39-.313-.194-.154q-.183-.145-.367-.286l-.2-.151c-.133-.1-.266-.2-.4-.3l-.159-.117q-.28-.2-.564-.4l-.079-.052q-.244-.163-.493-.32c-.063-.039-.126-.077-.19-.115q-.2-.122-.406-.239l-.216-.12q-.2-.112-.415-.218c-.071-.036-.142-.072-.214-.107-.163-.079-.33-.155-.5-.229-.05-.022-.1-.045-.149-.067q-.331-.14-.678-.265c-.05-.018-.1-.034-.154-.052-.182-.063-.367-.124-.557-.18-.082-.025-.167-.047-.251-.07q-.249-.069-.507-.131-.139-.033-.28-.064c-.177-.038-.359-.073-.544-.106-.09-.016-.179-.033-.27-.048l-.112-.015v22.5c5.965.667 9.393 3.465 12.464 5.971 3.208 2.619 5.978 4.88 11.735 4.88s8.528-2.262 11.736-4.88c3.514-2.868 7.5-6.12 15.214-6.12s11.7 3.251 15.213 6.12c3.208 2.619 5.978 4.88 11.735 4.88s8.527-2.261 11.735-4.88c3.514-2.869 7.5-6.12 15.214-6.12 7.994 0 11.851 3.268 15.253 6.152 3.069 2.6 5.72 4.848 11.7 4.848 5.757 0 8.528-2.261 11.735-4.88 3.514-2.869 7.5-6.12 15.214-6.12s11.7 3.251 15.215 6.12c3.208 2.619 5.979 4.88 11.738 4.88s8.529-2.262 11.737-4.88c3.07-2.506 6.5-5.3 12.465-5.971v-22.5z"/></svg>