<svg id="Capa_1" enable-background="new 0 0 512 512" height="512" viewBox="0 0 512 512" width="512" xmlns="http://www.w3.org/2000/svg"><g><path d="m0 305.394 29.546 71.203h452.908l29.546-71.203z"/><path d="m0 406.597h512v60h-512z"/><path d="m33.734 169.994v37.47h216.597l42.435-37.424z"/><path d="m120.26 140.007v-17.599c0-16.569-13.431-30-30-30h-26.526c-16.569 0-30 13.431-30 30v17.586z"/><path d="m364.035 147.187-102.366 90.277h-231.669c-16.569 0-30 13.431-30 30v7.93h512c-.469-55.251-30.655-106.126-79.008-133.005l-38.957-21.659v-29.704c0-13.903-6.08-27.267-16.992-35.883-7.72-6.095-17.465-9.74-28.008-9.74h-33.023v30h33.023c8.284 0 15 6.716 15 15z"/></g></svg>