<svg height="512" viewBox="0 0 48 48" width="512" xmlns="http://www.w3.org/2000/svg"><g id="maintenance_setting" data-name="maintenance setting"><path d="m43.56 17.87-4.48-7.74c-.45-.79-1-.48-3.92.06a17.5 17.5 0 0 0 -4.78-2.75c-.87-2.51-.94-3.44-1.91-3.44h-8.94c-.93 0-1 .68-1.91 3.44a17.5 17.5 0 0 0 -4.78 2.75c-2.82-.53-3.46-.87-3.92-.06l-4.48 7.74c-.44.78.07 1.1 2 3.37a17.32 17.32 0 0 0 0 5.52c-1.85 2.15-2.48 2.56-2 3.37l4.48 7.74c.45.79 1.06.48 3.92-.06a17.5 17.5 0 0 0 4.78 2.75l1 2.77a1 1 0 0 0 1 .67h8.94c.93 0 1-.68 1.91-3.44a17.5 17.5 0 0 0 4.78-2.75c2.82.53 3.46.87 3.92.06l4.48-7.74c.44-.78-.07-1.1-2-3.37a17.32 17.32 0 0 0 0-5.52c1.74-2.15 2.35-2.56 1.91-3.37zm-6.59 7a13 13 0 0 1 -22.65 7.79c-4.06-4.06-4.72-11.83-.19-17.11 8.55-9.62 23.67-2.77 22.87 9.32z"/><path d="m27.43 16.78a1 1 0 0 0 -1.43.9v5.78l-2 1.34-2-1.34v-5.78a1 1 0 0 0 -1.43-.9 8 8 0 0 0 -.57 14.14v3.32a10.94 10.94 0 0 0 8 0v-3.32a8 8 0 0 0 -.57-14.14z"/></g></svg>