<svg id="Capa_1" enable-background="new 0 0 512 512" viewBox="0 0 512 512" xmlns="http://www.w3.org/2000/svg"><g><path d="m165.68 233.792 7.07-7.07-23.88-23.59-.001-.001 25.475-1.897-2.228-29.918-51.553 3.839-21.315-21.076 25.318-1.885-2.228-29.918-51.597 3.842.034.457c-.001-.001-.003-.002-.004-.003-8.382-6.209-19.329-8.84-29.74-7.2-.001 0-.002 0-.003 0l-13.952-28.404-27.076 13.227 15.218 30.68c-11.946 15.304-10.262 39.04 3.883 52.477.008.008 7.38 7.291 7.387 7.298l-25.334 1.886 2.228 29.918 51.413-3.828 21.315 21.076-25.177 1.875 2.228 29.918 51.274-3.818 11.745 11.616c13.032-13.033 36.367-36.369 49.5-49.501z"/><path d="m203 292.902c0-12.302 0-28.272 0-40.55-2.766 0-10.578 0-13.45 0-15.382 15.382-39.233 39.232-54.55 54.55v64.77h36.08c4.29-17.93 16.11-32.97 31.92-41.57z"/><path d="m394.38 169.072h-16.12c-8.051-7.153-24.275-21.573-32.29-28.7-5.566 6.261-14.31 16.089-19.94 22.42 7.468 6.641 22.5 20.003 29.97 26.64l15 13.33v71.87h-42.9c-34.343.564-65.662-26.884-69.66-60.99h-25.44v108.68c30.535-.36 56.464 20.863 63.26 49.35h72.79c16.417-65.417 108.788-65.373 125.18 0h17.77v-142.72z"/><path d="m234.32 352.322c-19.303-.466-35.154 15.574-35.01 34.35-.121 18.546 15.269 34.423 34.36 34.36 18.95 0 34.36-15.41 34.36-34.36.123-18.276-14.899-34.087-33.71-34.35z"/><path d="m431.64 352.312c-25.411-.115-41.961 27.104-30.91 49.36 12.408 25.684 49.414 25.675 61.83-.001 11.025-22.277-5.494-49.468-30.92-49.359z"/></g><g/><g/><g/><g/><g/><g/><g/><g/><g/><g/><g/><g/><g/><g/><g/></svg>