<svg xmlns="http://www.w3.org/2000/svg" height="640pt" version="1.1" viewBox="0 0 640.00027 640" width="640pt">
<g id="surface1">
<path d="M 476.417969 640 C 427.671875 640 367.871094 617.554688 301.988281 573.328125 C 168.78125 483.941406 12.894531 300.492188 0.8125 176.535156 C -3.050781 136.890625 6.890625 104.902344 30.367188 81.425781 L 111.792969 0 L 277.59375 165.800781 L 264.335938 179.058594 C 243.1875 200.210938 208.53125 234.792969 183.753906 259.402344 C 206.546875 292.875 250.546875 342.339844 283.011719 374.804688 C 313.742188 405.507812 349.300781 433.457031 381.347656 454.863281 C 404.433594 431.625 435.507812 400.457031 460.921875 374.988281 L 474.199219 361.71875 L 640 527.554688 L 559.5625 607.992188 C 538.15625 629.398438 509.902344 640 476.417969 640 Z M 476.417969 640 " style=" stroke:none;fill-rule:nonzero;fill:rgb(0%,0%,0%);fill-opacity:1;" />
</g>
</svg>