<svg id="Layer_1" viewBox="0 0 64 64" xmlns="http://www.w3.org/2000/svg" data-name="Layer 1"><path d="m58.733 4.733h-53.466a1.269 1.269 0 0 0 -1.267 1.267v34.45h56v-34.45a1.269 1.269 0 0 0 -1.267-1.267zm-22.812 31.01a1 1 0 0 1 -1 1h-26.229a1 1 0 0 1 -1-1v-10.743a1 1 0 0 1 1-1h5.557v-5.808a1 1 0 0 1 1-1h6.558a1 1 0 0 1 1 1v5.55h5.556a1 1 0 0 1 1 1v3.444h5.558a1 1 0 0 1 1 1zm19.514-6.832a.244.244 0 0 1 -.006.026c-.029 2.663-4.107 4.063-8.142 4.063s-8.144-1.4-8.144-4.087v-16.961c0-2.685 4.1-4.09 8.146-4.09s8.146 1.4 8.146 4.09z"/><path d="m9.692 26h4.557v8.743h-4.557z"/><path d="m16.249 25v9.743h4.558v-10.001-5.55h-4.558z"/><path d="m47.289 9.862c-3.977 0-6.146 1.381-6.146 2.09s2.169 2.09 6.146 2.09 6.146-1.38 6.146-2.09-2.169-2.09-6.146-2.09z"/><path d="m50.269 27.089a17.5 17.5 0 0 1 -5.976 0 .923.923 0 0 1 -.1-.013 10.357 10.357 0 0 1 -3.049-1.058v2.9c0 .709 2.169 2.087 6.144 2.087s6.145-1.378 6.145-2.087v-.014-2.89a10.355 10.355 0 0 1 -3.053 1.06 1.058 1.058 0 0 1 -.111.015z"/><path d="m50.269 21.435a17.5 17.5 0 0 1 -5.976 0c-.036 0-.071-.008-.1-.014a10.329 10.329 0 0 1 -3.049-1.057v2.9c0 .469 1.073 1.372 3.375 1.84.027 0 .052.006.074.01a15.587 15.587 0 0 0 5.39 0 .8.8 0 0 1 .082-.011c2.3-.469 3.368-1.371 3.368-1.839v-.015-2.889a10.356 10.356 0 0 1 -3.053 1.059 1.1 1.1 0 0 1 -.111.016z"/><path d="m22.807 34.743h4.556v-5.557-3.444h-4.556z"/><path d="m41.143 14.727v2.873c0 .469 1.073 1.373 3.375 1.84.027 0 .052.006.074.01a15.49 15.49 0 0 0 5.39 0c.028 0 .055-.009.083-.012 2.3-.467 3.367-1.37 3.367-1.838v-.015-2.858a13.332 13.332 0 0 1 -6.146 1.315 13.329 13.329 0 0 1 -6.143-1.315z"/><path d="m4 47.2a1.269 1.269 0 0 0 1.267 1.267h53.466a1.269 1.269 0 0 0 1.267-1.267v-4.75h-56zm13.649-2.46a1.036 1.036 0 0 1 1.411 0 1 1 0 1 1 -1.411 0zm-5.359 0a1.037 1.037 0 0 1 .91-.27.646.646 0 0 1 .18.06.776.776 0 0 1 .18.09l.15.12a1.052 1.052 0 0 1 .29.71 1 1 0 0 1 -.08.38.933.933 0 0 1 -.21.33 1.033 1.033 0 0 1 -.71.29.986.986 0 0 1 -.38-.07 1.268 1.268 0 0 1 -.33-.22 1.014 1.014 0 0 1 0-1.42zm-5.57.33a1.209 1.209 0 0 1 .219-.33 1.036 1.036 0 0 1 1.411 0 1.186 1.186 0 0 1 .219.33.977.977 0 0 1 .08.38 1 1 0 0 1 -1.71.71.967.967 0 0 1 -.219-.33 1.052 1.052 0 0 1 0-.76z"/><path d="m29.363 30.186h4.558v4.557h-4.558z"/><path d="m26.2 50.467v5.8a1 1 0 0 1 -.373.779l-2.763 2.221h17.936l-2.763-2.221a1 1 0 0 1 -.373-.779v-5.8z"/></svg>