<svg id="Layer_1" viewBox="0 0 64 64" xmlns="http://www.w3.org/2000/svg" data-name="Layer 1"><path d="m59.624 60-18.172-56h-.656l13.441 56z"/><path d="m9.755 60 13.442-56h-.656l-18.173 56z"/><path d="m38.739 4h-5.743v1.5c0 .552-.448 1-1 1s-1-.448-1-1v-1.5h-5.743l-13.441 56h19.184v-1.5c0-.552.448-1 1-1s1 .448 1 1v1.5h19.184zm-5.743 49.682c0 .552-.448 1-1 1s-1-.448-1-1v-4.818c0-.552.448-1 1-1s1 .448 1 1zm0-9.637c0 .552-.448 1-1 1s-1-.448-1-1v-4.818c0-.552.448-1 1-1s1 .448 1 1zm0-9.636c0 .552-.448 1-1 1s-1-.448-1-1v-4.818c0-.552.448-1 1-1s1 .448 1 1zm0-9.636c0 .552-.448 1-1 1s-1-.448-1-1v-4.818c0-.552.448-1 1-1s1 .448 1 1zm0-9.636c0 .552-.448 1-1 1s-1-.448-1-1v-4.818c0-.552.448-1 1-1s1 .448 1 1z"/></svg>