<svg id="OBJECT" viewBox="0 0 32 32" xmlns="http://www.w3.org/2000/svg"><circle cx="23.5" cy="8.5" r="2"/><path d="m30.27 3.66-1.93-1.93c-.47-.47-1.11-.73-1.77-.73h-6.14c-.66 0-1.3.27-1.77.73l-1.93 1.93c-.47.47-.73 1.11-.73 1.77v6.14c0 .66.27 1.3.73 1.77l1.93 1.93c.47.47 1.11.73 1.77.73h6.14c.66 0 1.3-.27 1.77-.73l1.93-1.93c.47-.47.73-1.11.73-1.77v-6.14c0-.66-.27-1.3-.73-1.77zm-6.77 8.84c-2.21 0-4-1.79-4-4s1.79-4 4-4 4 1.79 4 4-1.79 4-4 4z"/><path d="m9 2c0-.55-.45-1-1-1s-1 .45-1 1v2h2z"/><path d="m4.5 6h7v2h-7z"/><path d="m24 29h-3.5v-2.16c1.44-.43 2.5-1.76 2.5-3.34s-1.23-5.5-3.5-5.5-3.5 3.9-3.5 5.5 1.06 2.9 2.5 3.34v2.16h-4.5v-18c0-.55-.45-1-1-1h-10c-.55 0-1 .45-1 1v18c-.55 0-1 .45-1 1s.45 1 1 1h3.25v-6c0-.55.45-1 1-1h3.5c.55 0 1 .45 1 1v6h13.25c.55 0 1-.45 1-1s-.45-1-1-1zm-17.25-7h-.5c-.55 0-1-.45-1-1s.45-1 1-1h.5c.55 0 1 .45 1 1s-.45 1-1 1zm0-4h-.5c-.55 0-1-.45-1-1s.45-1 1-1h.5c.55 0 1 .45 1 1s-.45 1-1 1zm0-4h-.5c-.55 0-1-.45-1-1s.45-1 1-1h.5c.55 0 1 .45 1 1s-.45 1-1 1zm3 8h-.5c-.55 0-1-.45-1-1s.45-1 1-1h.5c.55 0 1 .45 1 1s-.45 1-1 1zm0-4h-.5c-.55 0-1-.45-1-1s.45-1 1-1h.5c.55 0 1 .45 1 1s-.45 1-1 1zm0-4h-.5c-.55 0-1-.45-1-1s.45-1 1-1h.5c.55 0 1 .45 1 1s-.45 1-1 1z"/><path d="m7.25 26h1.5v5h-1.5z"/></svg>