<?xml version="1.0" encoding="UTF-8"?>
<svg id="Layer_1" xmlns="http://www.w3.org/2000/svg" version="1.1" viewBox="0 0 64 64">
  <!-- Generator: Adobe Illustrator 30.4.0, SVG Export Plug-In . SVG Version: 2.1.4 Build 226)  -->
  <path d="M0,53.1c1.76.48,3.64.14,5.12-.93l1.71-1.28c1.34-.96,3.14-.96,4.48,0l1.71,1.28c2.1,1.51,4.94,1.51,7.04,0l1.71-1.28c1.34-.96,3.14-.96,4.48,0l1.71,1.28c2.1,1.51,4.94,1.51,7.04,0l1.71-1.28c1.34-.96,3.14-.96,4.48,0l1.71,1.28c2.1,1.51,4.94,1.51,7.04,0l1.71-1.28c1.34-.96,3.14-.96,4.48,0l1.85,1.39c.93.69,2.05,1.06,3.21,1.07,1.01,0,1.99-.29,2.84-.83v3.59l-.57.57c-1.15,1.09-2.91,1.22-4.2.3l-1.85-1.38c-2.1-1.51-4.94-1.51-7.04,0l-1.71,1.28c-1.34.96-3.14.96-4.48,0l-1.71-1.28c-2.1-1.51-4.94-1.51-7.04,0l-1.71,1.28c-1.34.96-3.14.96-4.48,0l-1.71-1.28c-2.1-1.51-4.94-1.51-7.04,0l-1.71,1.28c-1.34.96-3.14.96-4.48,0l-1.71-1.28c-2.1-1.51-4.94-1.51-7.04,0l-1.71,1.28c-1.12.81-2.59.95-3.84.38v-4.14ZM64,47.19v2.51l-.57.57c-.28.27-.61.49-.97.64-.62-.88-1.07-1.87-1.35-2.91,1.02.01,2.02-.27,2.89-.8ZM54.4,18.14c0,2.24-.29,4.48-.86,6.65-.56-.53-1.17-1-1.81-1.41.36-1.72.54-3.48.54-5.24,0-8.37-3.75-14.93-8.53-14.93s-8.53,6.56-8.53,14.93c0,7.03,2.67,12.93,6.51,14.51.93.58,1.6,1.49,1.88,2.54-5.81-.13-10.52-7.73-10.52-17.05S37.85,1.07,43.73,1.07s10.67,7.66,10.67,17.07ZM37.92,23.37c-.39-1.71-.59-3.47-.59-5.23-.01-2.36.35-4.71,1.07-6.96.72,2.25,1.08,4.6,1.07,6.96,0,1.56-.15,3.11-.46,4.64-.25.13-.5.23-.74.38l-.35.21ZM39.6,8.47c1.13-1.94,2.57-3.13,4.13-3.13,3.47,0,6.4,5.86,6.4,12.8,0,1.41-.12,2.81-.36,4.19-2.67-1.13-5.65-1.3-8.44-.49.18-1.22.27-2.46.27-3.7.05-3.33-.63-6.63-2-9.67ZM7.47,30.94c-3.47,0-6.4-5.87-6.4-12.8S4,5.34,7.47,5.34h16.09c-2.22,3.9-3.35,8.32-3.29,12.8-.07,4.48,1.07,8.9,3.29,12.8H7.47ZM22.4,18.14c0-9.41,4.79-17.07,10.67-17.07h4.83c-4.13,3.19-6.96,9.64-6.96,17.07s2.84,13.88,6.96,17.07h-4.83c-5.88,0-10.67-7.66-10.67-17.07ZM44.07,42.77c1.18-1.96,1.8-4.21,1.8-6.49-.01-2.58-1.56-4.9-3.94-5.89-1.63-1.22-2.82-2.94-3.39-4.89l.83-.5c5.03-3.02,11.56-1.39,14.58,3.64.99,1.65,1.51,3.54,1.51,5.47,0,3.01.82,5.97,2.37,8.55.55.91.83,1.95.83,3.01,0,1.85.46,3.67,1.33,5.31-.27-.09-.53-.23-.76-.4l-1.85-1.38c-2.1-1.51-4.94-1.51-7.04,0l-1.71,1.28c-1.34.96-3.14.96-4.48,0l-1.64-1.23c.09-.46.15-.93.15-1.4,0-1.78.48-3.53,1.4-5.06ZM5.12,46.83l1.71-1.28c1.34-.96,3.14-.96,4.48,0l1.71,1.28c2.1,1.51,4.94,1.51,7.04,0l1.71-1.28c1.34-.96,3.14-.96,4.48,0l1.71,1.28c2.1,1.51,4.94,1.51,7.04,0l1.71-1.28c1.22-.87,2.83-.95,4.13-.21-.18.82-.28,1.65-.29,2.49,0,.15-.02.29-.03.44-1.75-.48-3.62-.14-5.09.92l-1.71,1.28c-1.34.96-3.14.96-4.48,0l-1.71-1.28c-2.1-1.51-4.94-1.51-7.04,0l-1.71,1.28c-1.34.96-3.14.96-4.48,0l-1.71-1.28c-2.1-1.51-4.94-1.51-7.04,0l-1.71,1.28c-1.12.81-2.59.96-3.84.38v-3.06c1.76.48,3.65.13,5.12-.95ZM63.43,62c-1.15,1.09-2.91,1.21-4.2.3l-1.85-1.38c-2.1-1.51-4.94-1.51-7.04,0l-1.71,1.28c-1.34.96-3.14.96-4.48,0l-1.71-1.28c-2.1-1.51-4.94-1.51-7.04,0l-1.71,1.28c-1.34.96-3.14.96-4.48,0l-1.71-1.28c-2.1-1.51-4.94-1.51-7.04,0l-1.71,1.28c-1.34.96-3.14.96-4.48,0l-1.71-1.28c-2.1-1.51-4.94-1.51-7.04,0l-1.71,1.28c-1.12.81-2.58.96-3.84.39v-3.08c1.76.48,3.64.14,5.12-.93l1.71-1.28c1.34-.96,3.14-.96,4.48,0l1.71,1.28c2.1,1.51,4.94,1.51,7.04,0l1.71-1.28c1.34-.96,3.14-.96,4.48,0l1.71,1.28c2.1,1.51,4.94,1.51,7.04,0l1.71-1.28c1.34-.96,3.14-.96,4.48,0l1.71,1.28c2.1,1.51,4.94,1.51,7.04,0l1.71-1.28c1.34-.96,3.14-.96,4.48,0l1.85,1.39c.93.69,2.05,1.06,3.21,1.07,1.01,0,1.99-.29,2.84-.83v2.52l-.57.57Z"/>
</svg>