<?xml version="1.0" encoding="UTF-8"?>
<svg id="Layer_1" xmlns="http://www.w3.org/2000/svg" version="1.1" viewBox="0 0 455 455">
  <!-- Generator: Adobe Illustrator 30.4.0, SVG Export Plug-In . SVG Version: 2.1.4 Build 226)  -->
  <path d="M239.11,246.07v25.54h-20.89v-25.54h-62.68l-120.71,208.93h183.39v-60.36h20.89v60.36h183.39l-120.71-208.93h-62.68ZM239.11,352.86h-20.89v-37.14h20.89v37.14Z"/>
  <path d="M366.79,320.36v-118.39c0-76.61-62.68-139.29-139.29-139.29S88.21,125.36,88.21,201.96v116.07l51.07-85.89v-37.14c0-48.75,39.46-88.21,88.21-88.21s88.21,39.46,88.21,88.21v37.14l51.07,88.21Z"/>
  <path d="M227.5,0C116.07,0,25.54,90.54,25.54,201.96v225.18l41.79-71.96v-153.21c0-88.21,71.96-160.18,160.18-160.18s160.18,71.96,160.18,160.18v155.54l41.79,74.29v-227.5C429.46,90.54,338.93,0,227.5,0Z"/>
</svg>