<svg id="Layer_1" height="512" viewBox="0 0 48 48" width="512" xmlns="http://www.w3.org/2000/svg" data-name="Layer 1"><path d="m8.158 47.25h31.684v-29.771h-31.684zm14.432-8.072h-4.754a.6.6 0 0 1 -.377-.151l2.241-3.885h2.89zm8.01-.042h-3.429l-.01 1.056-2.479-3.071 2.618-2.808-.011.793h5.692zm3.078-5.931a.594.594 0 0 1 .058.4h-4.478l-1.452-2.5 3.5-2.019zm-6.504-11.205 1.75 2.973.919-.519-1.42 3.682-3.741-.865.693-.386-2.846-4.881zm-6.646.313a.606.606 0 0 1 .3-.247l2.257 3.872-1.434 2.5-3.5-2.018zm-5.484 7.724 3.9-.612 1.121 3.675-.681-.406-2.847 4.929-2.3-4.077 1.714-2.97z"/><path d="m6.478 13.459h35.044v2.52h-35.044z"/><path d="m37.471.75h-5.698v9.885h-15.558v-9.885h-5.686l-2.092 11.209h31.126z"/><path d="m30.272 9.135-.009-8.385h-12.547l.01 8.385z"/></svg>