<svg id="Capa_1" enable-background="new 0 0 508.105 508.105" height="512" viewBox="0 0 508.105 508.105" width="512" xmlns="http://www.w3.org/2000/svg"><g id="XMLID_874_"><path id="XMLID_875_" d="m0 .776h508.105v66.352h-508.105z"/><path id="XMLID_876_" d="m82.564 231.874-7.616 8.026c-5.992 6.314-35.884 38.894-35.884 60.228 0 23.986 19.514 43.5 43.5 43.5s43.5-19.514 43.5-43.5c0-21.334-29.892-53.914-35.884-60.228z"/><path id="XMLID_877_" d="m253 230.846-7.616 8.026c-5.992 6.314-35.884 38.894-35.884 60.228 0 23.986 19.514 43.5 43.5 43.5s43.5-19.514 43.5-43.5c0-21.334-29.892-53.914-35.884-60.228z"/><path id="XMLID_878_" d="m423.436 231.874-7.616 8.026c-5.992 6.314-35.884 38.894-35.884 60.228 0 23.986 19.514 43.5 43.5 43.5s43.5-19.514 43.5-43.5c0-21.334-29.892-53.914-35.884-60.228z"/><path id="XMLID_879_" d="m82.564 395.575-7.617 8.026c-5.992 6.314-35.883 38.894-35.883 60.228 0 23.986 19.514 43.5 43.5 43.5s43.5-19.514 43.5-43.5c0-21.333-29.892-53.913-35.883-60.228z"/><path id="XMLID_880_" d="m253 394.547-7.616 8.026c-5.992 6.314-35.884 38.894-35.884 60.228 0 23.986 19.514 43.5 43.5 43.5s43.5-19.514 43.5-43.5c0-21.334-29.892-53.914-35.884-60.228z"/><path id="XMLID_881_" d="m423.436 395.575-7.617 8.026c-5.992 6.314-35.883 38.894-35.883 60.228 0 23.986 19.514 43.5 43.5 43.5s43.5-19.514 43.5-43.5c0-21.333-29.892-53.913-35.883-60.228z"/><path id="XMLID_882_" d="m29.127 97.127v70.657h38.437v26.576h30v-26.576h38.436v-70.657z"/><path id="XMLID_883_" d="m199.564 97.127v70.657h38.436v26.576h30v-26.576h38.436v-70.657z"/><path id="XMLID_884_" d="m370 97.127v70.657h38.436v26.576h30v-26.576h38.437v-70.657z"/></g></svg>