<svg id="Layer_1" viewBox="0 0 64 64" xmlns="http://www.w3.org/2000/svg" data-name="Layer 1"><path d="m21.582 11.113h20.838v11.452h-20.838z"/><path d="m52.203 4h-40.406v56h40.405v-56zm-35.28 50.887c-.552 0-1.005-.448-1.005-1s.442-1 .995-1h.01c.552 0 1 .448 1 1s-.448 1-1 1zm0-6.936c-.552 0-1.005-.448-1.005-1s.442-1 .995-1h.01c.552 0 1 .448 1 1s-.448 1-1 1zm0-6.936c-.552 0-1.005-.448-1.005-1s.442-1 .995-1h.01c.552 0 1 .448 1 1s-.448 1-1 1zm0-6.936c-.552 0-1.005-.448-1.005-1s.442-1 .995-1h.01c.552 0 1 .448 1 1s-.448 1-1 1zm2.659-10.516v-13.452c0-.552.448-1 1-1h22.838c.552 0 1 .448 1 1v13.452c0 .552-.448 1-1 1h-22.838c-.552 0-1-.448-1-1zm27.515 31.323h-25.064c-.552 0-1-.448-1-1s.448-1 1-1h25.064c.552 0 1 .448 1 1s-.448 1-1 1zm0-6.936h-25.064c-.552 0-1-.448-1-1s.448-1 1-1h25.064c.552 0 1 .448 1 1s-.448 1-1 1zm0-6.936h-25.064c-.552 0-1-.448-1-1s.448-1 1-1h25.064c.552 0 1 .448 1 1s-.448 1-1 1zm0-6.936h-25.064c-.552 0-1-.448-1-1s.448-1 1-1h25.064c.552 0 1 .448 1 1s-.448 1-1 1z"/></svg>