<svg id="Layer_1" enable-background="new 0 0 450 450" height="512" viewBox="0 0 450 450" width="512" xmlns="http://www.w3.org/2000/svg"><g><g><g id="XMLID_1_"><path d="m55.93 417.04h357.77v22.96h-357.77z"/><path d="m98.29 312.68 17.09 5.54-17.09 5.54-10.28 3.34c-1.56.51-2.78 1.73-3.29 3.29l-8.89 27.37-8.89-27.37c-.5-1.56-1.73-2.77-3.29-3.29l-27.37-8.88 27.37-8.88c1.56-.5 2.78-1.73 3.29-3.29l8.89-27.37 8.89 27.37c.5 1.56 1.73 2.78 3.29 3.29z"/><path d="m138.24 230.12 27.52 8.92 9.18 28.27c.68 2.11 2.64 3.53 4.86 3.53s4.19-1.42 4.87-3.53l9.17-28.27 27.52-8.92h8.33v152.3h-124.36v-50.18l28.22-9.15c2.12-.69 3.54-2.65 3.54-4.87s-1.42-4.19-3.54-4.86l-28.22-9.15v-74.08h32.91z"/><path d="m239.94 230.12h124.36v152.3h-124.36z"/><path d="m329.57 138.33-17.92 5.82c-1.57.5-2.78 1.73-3.3 3.29l-5.82 17.93-5.83-17.93c-.5-1.56-1.73-2.78-3.29-3.29l-17.93-5.82 17.93-5.82c1.56-.5 2.78-1.72 3.29-3.29l5.83-17.93 5.82 17.93c.51 1.57 1.73 2.78 3.29 3.29z"/><path d="m203.96 225-15.75 5.11c-1.56.5-2.78 1.73-3.29 3.29l-5.12 15.75-5.11-15.75c-.51-1.56-1.73-2.78-3.3-3.29l-15.74-5.11 15.75-5.11c1.57-.5 2.78-1.73 3.3-3.29l5.11-15.75 5.12 15.75c.5 1.56 1.73 2.78 3.29 3.29z"/><path d="m229.7 67.58v152.3h-8.33l-27.52-8.92-9.17-28.27c-.69-2.11-2.65-3.53-4.87-3.53s-4.19 1.42-4.86 3.53l-9.18 28.27-27.52 8.92h-32.91v-152.3z"/><path d="m364.3 67.58v152.3h-124.36v-152.3zm-13.02 70.75c0-2.22-1.43-4.19-3.54-4.86l-30.46-9.88-9.88-30.44c-.34-1.05-1-1.95-1.86-2.56-.85-.62-1.89-.98-3-.98-2.22 0-4.19 1.43-4.87 3.54l-9.88 30.44-30.46 9.88c-2.11.68-3.53 2.64-3.53 4.86s1.42 4.19 3.53 4.87l30.46 9.88 9.88 30.43c.69 2.11 2.65 3.54 4.87 3.54 2.21 0 4.18-1.43 4.86-3.54l9.88-30.43 30.46-9.88c2.11-.68 3.54-2.64 3.54-4.87z"/><path d="m95.09 300.88-1.44-.47-12.7-39.12v-218.09h307.74v363.6h-307.73v-31.65l12.7-39.12 1.44-.47v51.98c0 2.83 2.29 5.12 5.12 5.12h134.61 134.6c2.83 0 5.12-2.29 5.12-5.12v-325.08c0-2.83-2.29-5.12-5.12-5.12h-269.22c-2.83 0-5.12 2.29-5.12 5.12z"/><path d="m55.93 10h357.77v22.96h-357.77z"/></g></g></g></svg>