<svg id="Capa_1" enable-background="new 0 0 512 512" height="512" viewBox="0 0 512 512" width="512" xmlns="http://www.w3.org/2000/svg"><g><g><path d="m90 8.789-81.211 81.211h81.211z"/><path d="m367.391 181.904v-181.904h-247.391v120h-120v392h367.391v-127.513l-20.01 27.222-116.66 62.798 7.67-54.507h-29.789l-40.313 40.327-30-60-19.687 19.673h-51.211v-30h38.789l40.313-40.327 30 60 19.687-19.673h46.434l6.711-47.681zm-217.391-91.904h157.391v30h-157.391zm-90 60h247.391v30h-247.391zm0 60h247.391v30h-247.391zm0 90v-30h217.391v30z"/></g><path d="m277.977 353.994 184.804-251.089 49.219 34.19-184.775 251.396-58.536 31.509z"/></g></svg>