<svg id="Capa_1" enable-background="new 0 0 512 512" height="512" viewBox="0 0 512 512" width="512" xmlns="http://www.w3.org/2000/svg"><g><path d="m289.375 353.941v-52.812c0-8.34-6.794-15.125-15.145-15.125h-18.899v83.062h18.899c8.351 0 15.145-6.785 15.145-15.125z"/><path d="m429.664 188.662 82.336-82.229h-47.278v-106.433h-70.115v106.433h-47.278z"/><path d="m175.037 303.004c0-4.541-1.77-8.81-4.985-12.021s-7.49-4.979-12.037-4.979h-17.023v34h17.023c9.385 0 17.021-7.626 17.022-17z"/><path d="m49.063 463v-270.996h341.466l-78.45-78.348v-37.223h52.489v-76.433h-246.066v118.349h-118.502v393.651h416.54v-49z"/><path d="m88.463 15-73.444 73.349h73.444z"/><path d="m79.102 433h386.501v-210.996h-386.501zm260.529-176.996h95.057v30h-65.018v34h49.063v30h-49.063v49.996h-30.039zm-114.339 0h48.938c24.914 0 45.184 20.243 45.184 45.125v52.812c0 24.882-20.269 45.125-45.184 45.125h-48.938zm-114.339 0h47.061c12.57 0 24.389 4.889 33.277 13.767 8.889 8.877 13.784 20.681 13.783 33.235-.001 25.915-21.112 46.999-47.061 46.999h-17.023v49.995h-30.039v-143.996z"/></g></svg>