<svg id="Layer_1" height="512" viewBox="0 0 512 512" width="512" xmlns="http://www.w3.org/2000/svg" data-name="Layer 1"><path d="m372.72 142.681a7.066 7.066 0 0 1 3.57-4.1l59.31-29.464a7.1 7.1 0 0 1 9.539 3.212l66.124 133.14a7.139 7.139 0 0 1 -3.207 9.538l-59.308 29.462a7.127 7.127 0 0 1 -9.538-3.213l-66.128-133.149a7.068 7.068 0 0 1 -.362-5.426zm-139.213 18.369-76 56.438c4.9 13.661 14.5 18.641 35.139 18.472 1.869-.519 10.305-4.31 46.053-30.055a6.311 6.311 0 0 1 8.6 1.183 94.975 94.975 0 0 0 81.639 35.451 6.337 6.337 0 0 1 4.166 1.168l64.431 46.424 24.4-15.359-53.569-107.856-9.157 4.44a6.339 6.339 0 0 1 -3.62.564l-106.115-14.929a20.777 20.777 0 0 0 -15.967 4.059zm-27.458 4.712a183.107 183.107 0 0 0 -62.333.985l-56.01 112.777 3.736 2.781c65.5 48.6 108.764 80.7 177.427 118.682 6.464 3.569 15.733 4.272 20.814-2.643a14.45 14.45 0 0 0 -3.074-20.121c0-.01-.008-.01-.013-.01l-35.162-25.853a6.3 6.3 0 0 1 7.458-10.147l50.026 36.772a14.4 14.4 0 0 0 17.056-23.205l-36.6-26.9a6.3 6.3 0 0 1 7.456-10.147l36.6 26.9c0 .01 0 .01.006.01l13.413 9.865a14.4 14.4 0 0 0 17.057-23.21s0 0-.006-.009l-40.26-29.589a6.3 6.3 0 1 1 7.457-10.148l40.262 29.6s.008 0 .01.01l9.751 7.168a14.374 14.374 0 0 0 22.737-13.776 14.278 14.278 0 0 0 -5.68-9.429l-70.6-50.879a107.476 107.476 0 0 1 -86.258-35.723c-40.482 28.917-45.078 28.981-48.16 29.021-17.719.233-39.158-2.658-47.725-27.417a11.852 11.852 0 0 1 4.149-13.439l56.459-41.925zm-132.8-57.393a7.06 7.06 0 0 1 3.154.748l59.31 29.461a7.131 7.131 0 0 1 3.206 9.529l-66.126 133.149a7.127 7.127 0 0 1 -9.537 3.213l-59.31-29.462a7.138 7.138 0 0 1 -3.208-9.538l66.126-133.14a7.117 7.117 0 0 1 6.383-3.96z" fill-rule="evenodd"/></svg>