<svg id="Capa_1" enable-background="new 0 0 512 512" height="512" viewBox="0 0 512 512" width="512" xmlns="http://www.w3.org/2000/svg"><path d="m187.53 0c-15.668 0-29.456 10.029-34.307 24.955l-142.958 439.692c-3.573 10.99-1.653 23.13 5.135 32.475 6.869 9.455 17.502 14.878 29.174 14.878h29.101l116.449-512z"/><path d="m270.699 0v47.663c0 8.284-6.716 15-15 15s-15-6.716-15-15v-47.663h-19.807l-116.449 512h136.199v-47.663c0-8.284 6.716-15 15-15s15 6.716 15 15v47.663h146.539l-116.448-512zm-30.086 142v-40.663c0-8.284 6.716-15 15-15s15 6.716 15 15v40.663c0 8.284-6.716 15-15 15s-15-6.716-15-15zm30.057 45.337v42.663c0 8.284-6.716 15-15 15s-15-6.716-15-15v-42.663c0-8.284 6.716-15 15-15s15 6.716 15 15zm-30.029 88c0-8.284 6.716-15 15-15s15 6.716 15 15v42.663c0 8.284-6.716 15-15 15s-15-6.716-15-15zm30.058 131.663c0 8.284-6.716 15-15 15s-15-6.716-15-15v-42.663c0-8.284 6.716-15 15-15s15 6.716 15 15z"/><path d="m501.897 465.289-133.969-439.692c-4.665-15.31-18.534-25.597-34.51-25.597h-1.917l116.448 512h19.438c11.537 0 22.098-5.324 28.974-14.607 6.897-9.312 8.915-21.014 5.536-32.104z"/></svg>