<svg id="Layer_1" enable-background="new 0 0 495 495" height="512" viewBox="0 0 495 495" width="512" xmlns="http://www.w3.org/2000/svg"><g><path d="m180 142.5h122.16l-9-30h-113.16z"/><path d="m67.366 307.5h184.885l11.974-17.164c38.114-54.638 110.627-73.6 170.775-43.732v-74.104c-6.306 0-276.206 0-285 0v-90h134.16l-9-30h39.84v-30c-11.028 0-258.095 0-270 0v30h45v126.972l-90 60.001v95.239c17.502-16.814 41.247-27.175 67.367-27.21z"/><path d="m67.5 337.5c-37.279 0-67.5 30.221-67.5 67.5 3.555 89.537 131.458 89.512 135-.001 0-37.278-30.221-67.499-67.5-67.499z"/><path d="m137.788 337.5c15.219 15.842 25.153 36.796 26.926 60h330.286v-60c-10.656 0-348.159 0-357.212 0z"/><path d="m288.829 307.5h172.342c-40.602-59.68-131.764-59.652-172.342 0z"/><path d="m375 472.5c35.68 0 67.196-17.8 86.171-45h-172.342c18.975 27.2 50.491 45 86.171 45z"/></g></svg>