<?xml version="1.0"?>
<svg xmlns="http://www.w3.org/2000/svg" id="Layer_1" data-name="Layer 1" viewBox="0 0 512 512"><path d="M490.786,216.08V362.2a9.857,9.857,0,1,1-19.713,0V216.08a9.857,9.857,0,1,1,19.713,0ZM54.316,446.3h26.59V428.084H54.316Zm257.6,0h26.591V428.084H311.914ZM421.022,79.779A14.091,14.091,0,0,0,406.947,65.7H21.214V93.854H406.947A14.091,14.091,0,0,0,421.022,79.779ZM385.858,355.2h71.215V223.08h-56.6Zm13.272-247.35-33.87,306.23H21.215V107.854ZM188,160.5l29.833,51.88a2.981,2.981,0,0,1,.3,2.276,3.017,3.017,0,0,1-1.067,1.6l-5.327,4.1,25.714,11.407.836.358h.842l1.149-.027.927-.534a4.086,4.086,0,0,0,2.06-3.164l2.978-27.967L240.026,203a2.95,2.95,0,0,1-1.132.225,3.014,3.014,0,0,1-2.605-1.5L214.1,163.29a8.281,8.281,0,0,0-7.159-4.129c-.178,0-.358.007-.559.02ZM105.415,328.99,134.3,276.576a2.988,2.988,0,0,1,1.792-1.438,3.021,3.021,0,0,1,.839-.119,2.978,2.978,0,0,1,1.081.2l6.266,2.425-3.582-27.891a4.178,4.178,0,0,0-4.127-3.632l-.96.021L109.35,258.481l5.415,3.983a3.016,3.016,0,0,1,1.1,1.576,2.98,2.98,0,0,1-.251,2.283L94.26,305.234a8.313,8.313,0,0,0,.491,8.726Zm70.152-12.081-50.911-.542-11.783,21.115,62.439.744Zm13.781-134.472L177.407,161.41l-33.556,54.064,18.092,11.272Zm104.968,132.94-59.846-.207a3,3,0,0,1-2.968-2.606l-.877-6.664-22.708,16.486a4.161,4.161,0,0,0-.058,6.759l22.7,16.6.894-6.669a3.006,3.006,0,0,1,2.978-2.591l44.4.075a8.211,8.211,0,0,0,7.409-4.617Zm4.257-10.452L268.9,249.614l-18.826,10,24.324,45.1Z"/></svg>
