<?xml version="1.0" encoding="UTF-8"?>
<svg id="Layer_1" xmlns="http://www.w3.org/2000/svg" version="1.1" viewBox="0 0 670.5 231.3">
  <!-- Generator: Adobe Illustrator 30.3.0, SVG Export Plug-In . SVG Version: 2.1.3 Build 182)  -->
  <defs>
    <style>
      .st0, .st1 {
        fill: #fff;
      }

      .st1 {
        fill-rule: evenodd;
      }
    </style>
  </defs>
  <g>
    <path class="st0" d="M277.2,144.4H42.3V41.5h234.9v-6.2H35.3v115.4h241.9v-6.2Z"/>
    <rect class="st0" x="521.2" y="35.3" width="35.3" height="35.3"/>
    <rect class="st0" x="560.6" y="35.3" width="35.3" height="35.3"/>
    <rect class="st0" x="521.2" y="75.2" width="35.3" height="35.3"/>
    <rect class="st0" x="521.2" y="115.1" width="35.3" height="35.3"/>
    <rect class="st0" x="560.6" y="75.2" width="35.3" height="35.3"/>
    <rect class="st0" x="560.6" y="115.1" width="35.3" height="35.3"/>
    <rect class="st0" x="600" y="75.2" width="35.3" height="35.3"/>
    <rect class="st0" x="600" y="115.1" width="35.3" height="35.3"/>
    <path class="st1" d="M456.9,96h-10.7v23.2h12c11,0,16.5-3.9,16.5-11.6s-1.2-5.7-3.5-8c-2.3-2.4-7.1-3.6-14.2-3.6Z"/>
    <path class="st1" d="M468.8,84c2.1-1.9,3.2-4.4,3.2-7.5s-1.2-6.2-3.6-7.7c-2.4-1.5-6.2-2.3-11.2-2.3h-10.9v20.5h9.4c6.6,0,11-1,13.1-2.9Z"/>
    <path class="st1" d="M385.2,65.7c-6.2,0-10.5,2.4-12.9,7.3-2.4,4.9-3.7,11.5-3.7,20s1.2,14.9,3.6,19.8c2.4,4.9,6.8,7.4,13.2,7.4s10.2-2.4,12.7-7.2c2.5-4.8,3.7-11.5,3.7-20.1s-1.2-15.1-3.7-20c-2.5-4.9-6.8-7.3-13-7.3Z"/>
    <path class="st1" d="M277.2,35.3v115.4h239.3V35.3h-239.3ZM339,101.6c0,7.3-.5,12.8-1.6,16.3-1.1,3.6-3.3,6.4-6.8,8.6-3.5,2.2-8.4,3.2-14.9,3.2s-7.3-.4-11.9-1.3v-9.7c3.1.7,6,1,8.7,1s5.6-.5,7.3-1.4c1.6-.9,2.8-2.4,3.4-4.3.7-1.9,1-6.1,1-12.4v-44.3h14.8v44.3ZM409.2,120.5c-5.5,6.2-13.4,9.3-23.9,9.3s-18.5-3.1-24.1-9.3c-5.6-6.2-8.4-15.4-8.4-27.6s2.8-21.2,8.3-27.5c5.5-6.2,13.6-9.4,24.1-9.4s18.4,3.1,23.9,9.3c5.5,6.2,8.3,15.4,8.3,27.5s-2.7,21.4-8.2,27.6ZM483.5,122.7c-4.2,3.9-12.3,5.9-24.3,5.9h-27.5V57.4h27.2c6.8,0,12.1.4,15.6,1.3,3.5.9,6.6,2.8,9,5.8,2.4,3,3.7,6.7,3.7,11,0,7.9-4.4,13.1-13.4,15.6,10.7,2.7,16.1,8.6,16.1,17.9s-2.1,9.8-6.4,13.7Z"/>
    <path class="st0" d="M634.4,35.2v3.7c0,17.9-10,26-22.3,26h-3.5c.4-5.6,2.1-9,6.7-13,2.2-2,2-3.1.9-2.5-7.6,4.5-11.4,10.6-11.5,20.4v.7h-3.7c0-2.5.2-4.8.6-6.9-.4-2.4-.6-5.7-.6-9.8,0-10.3,8.3-18.6,18.6-18.6s7.4,1.9,14.9,0h0Z"/>
    <path class="st0" d="M114.9,70.6h-34.3v14.8h27v13.6h-27v15.7h34.3v14.3h-51.5V56.9h51.5v13.7Z"/>
    <path class="st0" d="M189,83.7l-17.7,1.1c-.2-10.2-4.2-15.3-11.9-15.3s-13.2,7.8-13.2,23.5,1.2,15.2,3.6,18.4c2.4,3.2,5.7,4.8,10.1,4.8,7,0,11.2-4.5,12.8-13.6l16.4,1c-1.1,8.6-4.3,15.2-9.6,19.7-5.4,4.5-11.9,6.7-19.7,6.7s-17.3-3.3-23.3-9.9c-6-6.6-8.9-15.7-8.9-27.3s2.9-19.8,8.7-26.7c5.8-6.9,13.7-10.4,23.7-10.4,17.3,0,27.1,9.3,29.2,27.9Z"/>
    <path class="st0" d="M231.6,130.1c-9.7,0-17.2-3.6-22.5-10.9-5.3-7.3-8-16.1-8-26.5s2.7-19.3,8.1-26.3c5.4-7,13-10.6,23-10.6s17.6,3.8,22.8,11.3c5.1,7.5,7.7,16.1,7.7,25.8s-2.6,19.3-7.9,26.5c-5.3,7.2-13,10.8-23.1,10.8ZM232.1,69.6c-8.9,0-13.3,7.8-13.3,23.3s4.4,23.4,13.3,23.4,12.9-7.8,12.9-23.3-4.3-23.4-12.9-23.4Z"/>
  </g>
  <g>
    <path class="st0" d="M106.6,174h-3.6v16.1h-3.6v-16.1h-3.6v-3.4h10.9v3.4Z"/>
    <path class="st0" d="M122.9,182.6c0,.6,0,1.2-.2,1.8h-11.4c0,.3.2.7.5,1.1.8,1.3,2,1.9,3.6,1.9s2.7-.6,3.4-1.9h3.7c-.5,1.5-1.4,2.7-2.7,3.6-1.3,1-2.8,1.4-4.3,1.4s-4-.7-5.5-2.2-2.2-3.3-2.2-5.5.7-4.1,2.2-5.6c1.5-1.5,3.3-2.3,5.5-2.3s3.9.7,5.4,2.2c1.5,1.5,2.2,3.3,2.2,5.4ZM119.4,181.5c-.2-1.1-.6-1.9-1.3-2.5-.7-.6-1.6-.9-2.6-.9s-1.9.3-2.7.9-1.2,1.4-1.5,2.5h8.1Z"/>
    <path class="st0" d="M141.1,185.3c-.6,1.6-1.5,2.9-2.8,3.8-1.3.9-2.8,1.4-4.5,1.4s-4-.8-5.5-2.3c-1.5-1.5-2.3-3.4-2.3-5.5s.8-4,2.3-5.5,3.3-2.3,5.5-2.3,3.2.5,4.5,1.4c1.3,1,2.3,2.3,2.8,3.9h-4c-.8-1.4-1.9-2.1-3.4-2.1s-2.3.4-3.1,1.3c-.8.9-1.2,2-1.2,3.3s.4,2.4,1.2,3.3c.8.9,1.9,1.3,3.2,1.3s2.4-.7,3.2-2h4Z"/>
    <path class="st0" d="M157.6,190.1h-3.5v-7.2c0-3.1-1-4.7-3-4.7s-1.8.4-2.4,1.3c-.4.6-.6,1.8-.6,3.7v7h-3.5v-14.6h3.2v1.3c1.2-1.2,2.5-1.8,4-1.8s1.6.2,2.4.6c.8.4,1.5.9,2,1.5.9,1.1,1.3,2.7,1.3,5v8.1Z"/>
    <path class="st0" d="M176.5,182.7c0,2.2-.7,4.1-2.2,5.6-1.5,1.5-3.3,2.3-5.5,2.3s-4-.8-5.5-2.3c-1.5-1.5-2.3-3.4-2.3-5.5s.8-4,2.3-5.5c1.5-1.5,3.4-2.3,5.5-2.3s4,.8,5.5,2.3,2.3,3.3,2.3,5.5ZM173,182.8c0-1.2-.4-2.3-1.2-3.2-.8-.9-1.8-1.4-3-1.4s-2.2.5-3.1,1.4c-.8.9-1.2,2-1.2,3.2s.4,2.3,1.2,3.2c.8.9,1.8,1.3,3.1,1.3s2.2-.4,3-1.3,1.2-2,1.2-3.2Z"/>
    <path class="st0" d="M183.4,190.1h-3.5v-19.5h3.5v19.5Z"/>
    <path class="st0" d="M202.4,182.7c0,2.2-.7,4.1-2.2,5.6-1.5,1.5-3.3,2.3-5.5,2.3s-4-.8-5.5-2.3c-1.5-1.5-2.3-3.4-2.3-5.5s.8-4,2.3-5.5c1.5-1.5,3.4-2.3,5.5-2.3s4,.8,5.5,2.3c1.5,1.5,2.3,3.3,2.3,5.5ZM198.8,182.8c0-1.2-.4-2.3-1.2-3.2-.8-.9-1.8-1.4-3-1.4s-2.2.5-3.1,1.4c-.8.9-1.2,2-1.2,3.2s.4,2.3,1.2,3.2c.8.9,1.8,1.3,3.1,1.3s2.2-.4,3-1.3c.8-.9,1.2-2,1.2-3.2Z"/>
    <path class="st0" d="M220.7,187.4c0,1.8-.4,3.5-1.1,4.9-.8,1.4-1.9,2.4-3.5,3.1-1.1.5-2.2.7-3.3.7-1.7,0-3.1-.4-4.5-1.3-1.3-.9-2.3-2-2.9-3.6h4c.9,1.1,2.1,1.6,3.6,1.6s2.3-.4,3.1-1.3,1.3-2,1.3-3.3h0c-1.1,1.5-2.7,2.3-4.8,2.3s-2-.2-2.9-.7c-1.4-.6-2.6-1.6-3.4-2.9-.8-1.3-1.2-2.8-1.2-4.3s.7-3.9,2.2-5.4c1.4-1.5,3.2-2.3,5.3-2.3s3.6.8,4.7,2.3h0v-1.8h3.4v11.9ZM217.2,182.6c0-1.2-.4-2.2-1.3-3.1s-1.9-1.3-3-1.3-2.2.4-3,1.3c-.8.9-1.2,1.9-1.2,3.2s.4,2.4,1.2,3.3c.8.9,1.9,1.4,3.1,1.4s2.2-.5,3-1.4c.8-.9,1.2-2,1.2-3.3Z"/>
    <path class="st0" d="M227.9,173.8h-3.5v-3.2h3.5v3.2ZM227.9,190.1h-3.5v-14.6h3.5v14.6Z"/>
    <path class="st0" d="M246.8,190.1h-3.2v-1.8c-.6.7-1.3,1.2-2.3,1.7-1,.4-1.9.6-2.8.6-2.1,0-3.8-.8-5.1-2.3-1.3-1.5-2-3.4-2-5.6s.7-4,2.1-5.5c1.4-1.5,3.1-2.3,5.3-2.3s3.1.6,4.3,1.7c.3.3.4.5.5.6h0v-1.8h3.2v14.6ZM242.3,186c.8-.9,1.2-2,1.2-3.3s-.4-2.4-1.2-3.2c-.8-.9-1.8-1.3-3.1-1.3s-2.3.5-3.1,1.4c-.8.9-1.2,2-1.2,3.3s.4,2.3,1.3,3.2c.8.9,1.9,1.3,3.1,1.3s2.3-.4,3.1-1.3Z"/>
    <path class="st0" d="M274.1,182.6c0,.6,0,1.2-.2,1.8h-11.4c0,.3.2.7.5,1.1.8,1.3,2,1.9,3.6,1.9s2.7-.6,3.4-1.9h3.7c-.5,1.5-1.4,2.7-2.7,3.6-1.3,1-2.8,1.4-4.3,1.4s-4-.7-5.5-2.2c-1.5-1.5-2.2-3.3-2.2-5.5s.7-4.1,2.2-5.6c1.5-1.5,3.3-2.3,5.5-2.3s3.9.7,5.4,2.2c1.5,1.5,2.2,3.3,2.2,5.4ZM270.5,181.5c-.2-1.1-.6-1.9-1.3-2.5-.7-.6-1.6-.9-2.6-.9s-1.9.3-2.7.9-1.2,1.4-1.5,2.5h8.1Z"/>
    <path class="st0" d="M297.9,184.3c0,1.8-.6,3.3-1.8,4.5-1.2,1.2-2.7,1.7-4.5,1.7s-3.2-.6-4.4-1.7c-1.2-1.1-1.9-2.6-1.9-4.3h3.8c0,.8.3,1.4.8,1.9.4.5,1,.7,1.8.7s1.3-.2,1.9-.7c.5-.5.8-1,.8-1.8s0-.6-.1-.8c0-.3-.2-.5-.4-.7-.2-.2-.3-.4-.4-.5s-.3-.3-.6-.4c-.3-.1-.5-.2-.7-.3-.2,0-.4-.2-.8-.3-.4-.1-.6-.2-.7-.3-.9-.4-1.5-.6-1.8-.7-1.9-1-2.9-2.6-2.9-4.9s.5-2.9,1.6-4c1.1-1.1,2.5-1.6,4.1-1.6s2.9.5,4,1.6c1.1,1.1,1.7,2.4,1.8,4h-3.7c-.1-1.5-.9-2.2-2.2-2.2s-1.1.2-1.4.6c-.4.4-.6.8-.6,1.4s0,.4,0,.6c0,.2.1.4.2.5,0,.1.2.3.4.4.2.1.3.2.4.3s.3.2.5.3c.3.1.4.2.5.2,0,0,.3.1.6.2.3,0,.5.2.5.2,1.6.5,2.9,1.3,3.8,2.2.9.9,1.3,2.2,1.3,3.8Z"/>
    <path class="st0" d="M316.8,182.7c0,2.2-.7,4.1-2.2,5.6-1.5,1.5-3.3,2.3-5.5,2.3s-4-.8-5.5-2.3c-1.5-1.5-2.3-3.4-2.3-5.5s.8-4,2.3-5.5c1.5-1.5,3.4-2.3,5.5-2.3s4,.8,5.5,2.3c1.5,1.5,2.3,3.3,2.3,5.5ZM313.3,182.8c0-1.2-.4-2.3-1.2-3.2-.8-.9-1.8-1.4-3-1.4s-2.2.5-3.1,1.4c-.8.9-1.2,2-1.2,3.2s.4,2.3,1.2,3.2c.8.9,1.8,1.3,3.1,1.3s2.2-.4,3-1.3,1.2-2,1.2-3.2Z"/>
    <path class="st0" d="M323.7,190.1h-3.5v-19.5h3.5v19.5Z"/>
    <path class="st0" d="M340.7,190.1h-3.2v-1.5h0c-.9,1.3-2.2,1.9-3.8,1.9s-1.9-.2-2.8-.6c-.9-.4-1.6-1-2.1-1.7-.7-1-1.1-2.7-1.1-5v-7.7h3.5v7.5c0,3,1,4.4,3.1,4.4s1.1-.1,1.5-.4c.4-.3.7-.6.9-1.1.2-.5.3-.9.4-1.4,0-.5.1-1,.1-1.5v-7.5h3.5v14.6Z"/>
    <path class="st0" d="M359.6,185.3c-.6,1.7-1.5,2.9-2.8,3.9-1.3.9-2.8,1.4-4.6,1.4l-.4,1c.3,0,.5,0,.7,0,.7,0,1.3.3,1.8.8.4.5.7,1.1.7,1.9s-.2,1.4-.7,1.9c-.5.5-1.1.7-1.9.7s-1.2-.2-1.8-.7c-.5-.4-.8-1-.8-1.6h1.4c0,.3.2.5.4.7.2.2.5.3.8.3s.7-.1.9-.4c.2-.2.3-.5.3-.9s-.1-.7-.4-.9c-.2-.3-.5-.4-.9-.4-.5,0-.9.2-1.1.6l-1.3-.5,1.1-2.5c-1.9-.4-3.4-1.2-4.6-2.7-1.2-1.4-1.8-3.1-1.8-5s.8-4,2.3-5.5c1.5-1.5,3.3-2.3,5.5-2.3s3.2.5,4.5,1.4c1.3,1,2.3,2.3,2.8,3.9h-4c-.8-1.4-1.9-2.1-3.4-2.1s-2.3.4-3.1,1.3c-.8.9-1.2,2-1.2,3.3s.4,2.4,1.2,3.3c.8.9,1.9,1.3,3.2,1.3s2.4-.7,3.2-2h4Z"/>
    <path class="st0" d="M377.9,182.7c0,2.2-.7,4.1-2.2,5.6-1.5,1.5-3.3,2.3-5.5,2.3s-4-.8-5.5-2.3c-1.5-1.5-2.3-3.4-2.3-5.5s.8-4,2.3-5.5,3.4-2.3,5.5-2.3,4,.8,5.5,2.3,2.3,3.3,2.3,5.5ZM375.3,172.1c-1,.8-2,1.2-3,1.2s-1.1-.1-1.9-.4c-.8-.2-1.5-.4-1.9-.4-.7,0-1.4.2-2.1.5l-1.4-2.1c1-.8,2-1.1,3.1-1.1s1.1.1,1.9.4,1.5.4,1.9.4c.7,0,1.4-.2,2-.6l1.4,2.1ZM374.4,182.8c0-1.2-.4-2.3-1.2-3.2-.8-.9-1.8-1.4-3-1.4s-2.2.5-3.1,1.4c-.8.9-1.2,2-1.2,3.2s.4,2.3,1.2,3.2c.8.9,1.8,1.3,3.1,1.3s2.2-.4,3-1.3c.8-.9,1.2-2,1.2-3.2Z"/>
    <path class="st0" d="M395.9,182.6c0,.6,0,1.2-.2,1.8h-11.4c0,.3.2.7.5,1.1.8,1.3,2,1.9,3.6,1.9s2.7-.6,3.4-1.9h3.7c-.5,1.5-1.4,2.7-2.7,3.6-1.3,1-2.8,1.4-4.3,1.4s-4-.7-5.5-2.2c-1.5-1.5-2.2-3.3-2.2-5.5s.7-4.1,2.2-5.6c1.5-1.5,3.3-2.3,5.5-2.3s3.9.7,5.4,2.2c1.5,1.5,2.2,3.3,2.2,5.4ZM392.4,181.5c-.2-1.1-.6-1.9-1.3-2.5-.7-.6-1.6-.9-2.6-.9s-1.9.3-2.7.9c-.7.6-1.2,1.4-1.5,2.5h8.1Z"/>
    <path class="st0" d="M409.1,185.4c0,1.4-.5,2.7-1.5,3.6s-2.2,1.5-3.6,1.5-1.7-.2-2.5-.5c-.8-.3-1.4-.8-1.9-1.4-.6-.8-1-1.8-1.1-3.2h3.6c.3,1.2.9,1.9,1.9,1.9s.8-.1,1.1-.4c.3-.3.5-.6.5-1.1s0-.6-.2-.8c-.1-.2-.3-.3-.6-.5-.3-.2-.6-.3-.8-.4-.2,0-.6-.2-1-.3-.4-.1-.6-.2-.7-.2-2.2-.8-3.3-2.2-3.3-4.2s.5-2.4,1.5-3.2c1-.9,2.1-1.3,3.4-1.3s2.4.4,3.3,1.3c.9.9,1.4,1.9,1.5,3.2h-3.4c-.2-.8-.6-1.3-1.4-1.3s-.7.1-.9.4c-.3.2-.4.5-.4.9s0,.5.2.6c.1.2.3.3.4.3.1,0,.3.1.6.3.3.1.7.2,1.3.4,1.3.4,2.3.9,3,1.6.7.6,1,1.6,1,2.8Z"/>
    <path class="st0" d="M438.9,190.1h-4l-2.1-5h-7l-2.1,5h-4l8.1-19.5h2.8l8.2,19.5ZM431.6,181.6l-2.2-6h0l-2.2,6h4.5Z"/>
    <path class="st0" d="M463.8,190.1h-3.5v-8.1c0-2.5-.9-3.8-2.8-3.8s-1.9.5-2.4,1.4c-.4.6-.5,1.6-.5,3v7.6h-3.5v-8.1c0-1.1-.2-2-.7-2.7-.5-.7-1.2-1.1-2.2-1.1s-1.1.1-1.5.4c-.4.3-.7.7-.9,1.2-.2.5-.3,1-.3,1.4,0,.4,0,1,0,1.6v7.3h-3.5v-14.6h3.2v1.2h0c.7-1.2,2-1.7,3.8-1.7s3.2.8,4.2,2.3c1.1-1.5,2.6-2.3,4.7-2.3s3.7.8,4.8,2.3c.7,1,1.1,2.5,1.1,4.3v8.5Z"/>
    <path class="st0" d="M483.2,182.7c0,1.1-.2,2.1-.6,3.2-.6,1.5-1.4,2.6-2.6,3.4-1.1.8-2.5,1.2-4.1,1.2s-2-.2-2.7-.5c-.8-.4-1.5-.9-2.2-1.7v1.8h-3.2v-19.5h3.5v6.2c1.2-1.2,2.7-1.8,4.6-1.8s3.8.8,5.2,2.3c1.4,1.5,2.1,3.3,2.1,5.4ZM479.7,182.7c0-1.3-.4-2.3-1.2-3.2-.8-.9-1.8-1.3-3.1-1.3s-2.2.4-3.1,1.3c-.8.9-1.3,1.9-1.3,3.1s.4,2.5,1.2,3.4c.8.9,1.9,1.4,3.2,1.4s2.3-.4,3.1-1.3c.8-.9,1.2-2,1.2-3.3Z"/>
    <path class="st0" d="M490.1,173.8h-3.5v-3.2h3.5v3.2ZM490.1,190.1h-3.5v-14.6h3.5v14.6Z"/>
    <path class="st0" d="M508.9,182.6c0,.6,0,1.2-.2,1.8h-11.4c0,.3.2.7.5,1.1.8,1.3,2,1.9,3.6,1.9s2.7-.6,3.4-1.9h3.7c-.5,1.5-1.4,2.7-2.7,3.6-1.3,1-2.8,1.4-4.3,1.4s-4-.7-5.5-2.2-2.2-3.3-2.2-5.5.7-4.1,2.2-5.6c1.5-1.5,3.3-2.3,5.5-2.3s3.9.7,5.4,2.2c1.5,1.5,2.2,3.3,2.2,5.4ZM505.4,181.5c-.2-1.1-.6-1.9-1.3-2.5-.7-.6-1.6-.9-2.6-.9s-1.9.3-2.7.9-1.2,1.4-1.5,2.5h8.1Z"/>
    <path class="st0" d="M525.5,190.1h-3.5v-7.2c0-3.1-1-4.7-3-4.7s-1.8.4-2.4,1.3c-.4.6-.6,1.8-.6,3.7v7h-3.5v-14.6h3.2v1.3c1.2-1.2,2.5-1.8,4-1.8s1.6.2,2.4.6c.8.4,1.5.9,2,1.5.9,1.1,1.3,2.7,1.3,5v8.1Z"/>
    <path class="st0" d="M536,178.6h-2.1v11.5h-3.5v-11.5h-1.7v-3.1h1.7v-4.9h3.5v4.9h2.1v3.1Z"/>
    <path class="st0" d="M553.5,190.1h-3.2v-1.8c-.6.7-1.3,1.2-2.3,1.7-1,.4-1.9.6-2.8.6-2.1,0-3.8-.8-5.1-2.3-1.3-1.5-2-3.4-2-5.6s.7-4,2.1-5.5c1.4-1.5,3.1-2.3,5.3-2.3s3.1.6,4.3,1.7c.3.3.4.5.5.6h0v-1.8h3.2v14.6ZM549,186c.8-.9,1.2-2,1.2-3.3s-.4-2.4-1.2-3.2c-.8-.9-1.8-1.3-3.1-1.3s-2.3.5-3.1,1.4c-.8.9-1.2,2-1.2,3.3s.4,2.3,1.3,3.2c.8.9,1.9,1.3,3.1,1.3s2.3-.4,3.1-1.3Z"/>
    <path class="st0" d="M561,173.8h-3.5v-3.2h3.5v3.2ZM561,190.1h-3.5v-14.6h3.5v14.6Z"/>
    <path class="st0" d="M574.8,185.4c0,1.4-.5,2.7-1.5,3.6-1,1-2.2,1.5-3.6,1.5s-1.7-.2-2.5-.5c-.8-.3-1.4-.8-1.9-1.4-.6-.8-1-1.8-1.1-3.2h3.6c.3,1.2.9,1.9,1.9,1.9s.8-.1,1.1-.4c.3-.3.5-.6.5-1.1s0-.6-.2-.8c-.1-.2-.3-.3-.6-.5-.3-.2-.6-.3-.8-.4-.2,0-.6-.2-1-.3-.4-.1-.6-.2-.7-.2-2.2-.8-3.3-2.2-3.3-4.2s.5-2.4,1.5-3.2c1-.9,2.1-1.3,3.4-1.3s2.4.4,3.3,1.3c.9.9,1.4,1.9,1.5,3.2h-3.4c-.2-.8-.6-1.3-1.4-1.3s-.7.1-.9.4c-.3.2-.4.5-.4.9s0,.5.2.6c.1.2.3.3.4.3.1,0,.3.1.6.3.3.1.7.2,1.3.4,1.3.4,2.3.9,3,1.6.7.6,1,1.6,1,2.8Z"/>
  </g>
</svg>